<svg xmlns="http://www.w3.org/2000/svg" width="47.924" height="47.948" viewBox="0 0 47.924 47.948">
  <g id="x31_4_26" data-name="x31 4 26" transform="translate(0 0)">
    <g id="Group" transform="translate(0 0)">
      <path id="Vector" d="M1969.853,686.875c.542-.719.456-2.243.378-3.588,0-.058-.007-.115-.009-.172-.761-.073-1.53-.113-2.31-.113a23.9,23.9,0,0,0-8.474,1.546,55.847,55.847,0,0,1,8.024,4.756A17.231,17.231,0,0,0,1969.853,686.875Z" transform="translate(-1943.938 -683.002)" fill="#456ed6"/>
      <path id="Vector-2" data-name="Vector" d="M1971.843,691.438a15.93,15.93,0,0,0-3.03.6c4.075,7.113,5.664,16.1,6.052,22.611a23.881,23.881,0,0,0,6.842-15.83C1978.924,695.4,1975.241,691.053,1971.843,691.438Z" transform="translate(-1933.781 -673.885)" fill="#456ed6"/>
      <path id="Vector-3" data-name="Vector" d="M1964.761,692.922a21.2,21.2,0,0,0,7.7-3.557,50.956,50.956,0,0,0-8.947-4.985A24.064,24.064,0,0,0,1953,695.73a46.976,46.976,0,0,1,8.837-2.243C1962.8,693.307,1963.8,693.122,1964.761,692.922Z" transform="translate(-1950.921 -681.509)" fill="#456ed6"/>
      <path id="Vector-4" data-name="Vector" d="M1966.6,690.956q.384.385.764.784a25.592,25.592,0,0,1,2.557,3.187,16.829,16.829,0,0,1,4.059-.911c3.756-.425,7.1,2.551,9.965,5.828a23.872,23.872,0,0,0-5.92-13.009,34.033,34.033,0,0,0-5.633,1.15A27.53,27.53,0,0,0,1966.6,690.956Z" transform="translate(-1936.184 -678.846)" fill="#456ed6"/>
      <path id="Vector-5" data-name="Vector" d="M1975.994,700.5c.984-3.331,2.122-5.731,4.329-7.29a22.35,22.35,0,0,0-2.147-2.654c-.357-.375-.719-.737-1.081-1.094-8.854,6.026-20.981,17.1-22.084,26.688a23.924,23.924,0,0,0,14.391,7.573c2.064-4.111,4.008-12.469,5.164-17.44C1975.12,703.893,1975.6,701.831,1975.994,700.5Z" transform="translate(-1948.737 -676.005)" fill="#456ed6"/>
      <path id="Vector-6" data-name="Vector" d="M1969.219,697.358a85.483,85.483,0,0,1,9.328-7.445c-.994-.879-1.991-1.69-2.969-2.433a24.078,24.078,0,0,1-9.249,4.429c-.989.206-2,.394-2.98.576-3.77.7-7.389,1.378-10.433,3.076a23.95,23.95,0,0,0,3.383,20.256C1958.054,708.872,1964.069,702.1,1969.219,697.358Z" transform="translate(-1952 -678.149)" fill="#456ed6"/>
      <path id="Vector-7" data-name="Vector" d="M1967.358,693.153a31.692,31.692,0,0,1,6.906-3.552,35.359,35.359,0,0,1,4.17-.967,23.888,23.888,0,0,0-10.985-5.407c.092,1.674.132,3.513-.875,4.848a18.6,18.6,0,0,1-2.341,2.447C1965.263,691.326,1966.312,692.2,1967.358,693.153Z" transform="translate(-1938.745 -682.758)" fill="#456ed6"/>
      <path id="Vector-8" data-name="Vector" d="M1969.488,698.174c-.374,1.268-.846,3.3-1.392,5.649-1.613,6.94-3.157,13.15-4.959,17.11.256.008.512.019.769.019a23.864,23.864,0,0,0,14.8-5.121c-.161-6.813-1.794-16.45-5.909-23.6C1971.2,693.414,1970.342,695.28,1969.488,698.174Z" transform="translate(-1939.932 -673.004)" fill="#456ed6"/>
    </g>
  </g>
</svg>
