<svg xmlns="http://www.w3.org/2000/svg" width="67.445" height="10.869" viewBox="0 0 67.445 10.869">
  <path id="Call_Center" data-name="Call Center" d="M4.189-5.735a2.638,2.638,0,0,1,1.04.623,2.057,2.057,0,0,1,.6,1.465,3.349,3.349,0,0,1-.608,1.9A4.177,4.177,0,0,1,3.765-.432,3.818,3.818,0,0,1,1.926.051,3.952,3.952,0,0,1,.344-.322q-.066.2-.081.264-.1.344-.3.344A.437.437,0,0,1-.4.044.623.623,0,0,1-.513-.3,3.977,3.977,0,0,1-.19-1.377,28.656,28.656,0,0,1,.967-4.021q.308-.593,1.274-2.256.425-.718,1.223-1.956.19-.293.366-.593a7.484,7.484,0,0,0-.916.381,2.526,2.526,0,0,1-.549.22.233.233,0,0,1-.19-.11.422.422,0,0,1-.081-.256.367.367,0,0,1,.154-.33,5.463,5.463,0,0,1,1-.491,6.876,6.876,0,0,1,2.424-.608,1.95,1.95,0,0,1,1.26.388,1.2,1.2,0,0,1,.483.974,2.494,2.494,0,0,1-1.4,2.087A7.837,7.837,0,0,1,4.189-5.735Zm-1.1-.454a6.941,6.941,0,0,0,2.344-.886q1.274-.769,1.274-1.531a.61.61,0,0,0-.337-.549,1.2,1.2,0,0,0-.615-.132,2.989,2.989,0,0,0-.549.055,4.74,4.74,0,0,0-.623.165.286.286,0,0,1,.125.234.973.973,0,0,1-.242.513q-.081.11-.293.432-.081.139-.491.74A10.207,10.207,0,0,0,3.091-6.189ZM.549-.945a2.717,2.717,0,0,0,.366.19A2.315,2.315,0,0,0,1.75-.63a2.977,2.977,0,0,0,2.5-1.238,3.407,3.407,0,0,0,.8-2.058,1.248,1.248,0,0,0-.608-1.091A1.506,1.506,0,0,0,3.6-5.251a2.715,2.715,0,0,0-.542.081.606.606,0,0,1-.132.015q-.176,0-.293-.256a19.457,19.457,0,0,0-1.318,2.5A21.106,21.106,0,0,0,.549-.945ZM7-2.981a14.3,14.3,0,0,1,1.655-1.5,6.875,6.875,0,0,1,.718-.491.75.75,0,0,1,.242-.11q.11,0,.22.161a.277.277,0,0,1,.066.161q0,.132-.278.359-.747.593-.747.894,0,.168.19.168a2.507,2.507,0,0,0,1.084-.52.427.427,0,0,1,.22-.088.169.169,0,0,1,.117.059.2.2,0,0,1,.066.139q0,.22-.615.674a2.071,2.071,0,0,1-1.223.483.8.8,0,0,1-.432-.125.393.393,0,0,1-.168-.366A.788.788,0,0,1,8.269-3.5,7.242,7.242,0,0,0,6.907-2.095a10.188,10.188,0,0,0-.9,1.516q-.168.337-.417.337-.271,0-.271-.256a5.789,5.789,0,0,1,.425-1.333,10.147,10.147,0,0,1,1.318-2.5q.425-.549.71-.549a.293.293,0,0,1,.176.059.223.223,0,0,1,.1.183.6.6,0,0,1-.146.308l-.388.491A3.852,3.852,0,0,0,7-2.981Zm4.79,1.2a5.54,5.54,0,0,1-.476.718,1.249,1.249,0,0,1-.916.571.682.682,0,0,1-.615-.374,1.125,1.125,0,0,1-.139-.571,3.929,3.929,0,0,1,.513-1.794,4.741,4.741,0,0,1,1.377-1.677,1.751,1.751,0,0,1,1.018-.381.724.724,0,0,1,.513.19.516.516,0,0,1,.176.381,1.221,1.221,0,0,1-.125.447.489.489,0,0,1,.11.271,1.229,1.229,0,0,1-.205.505,5.644,5.644,0,0,0-.425.952,3.172,3.172,0,0,0-.227,1.011.715.715,0,0,0,.183.505,1.382,1.382,0,0,0,.3.168.313.313,0,0,1,.183.308.285.285,0,0,1-.1.227.379.379,0,0,1-.256.1A.854.854,0,0,1,12-.579a1.094,1.094,0,0,1-.234-.718Q11.763-1.443,11.792-1.78Zm.916-2.41a.727.727,0,0,0-.19-.238A.359.359,0,0,0,12.3-4.5q-.557,0-1.208.974a3.507,3.507,0,0,0-.718,1.824.468.468,0,0,0,.07.278.242.242,0,0,0,.209.1q.352,0,.82-.747a12.362,12.362,0,0,0,.652-1.208,6.384,6.384,0,0,1,.374-.688A1.068,1.068,0,0,1,12.708-4.189Zm1.553,1.106q.1-.088.183-.176,1.531-1.494,2.051-1.494.286,0,.286.315a.868.868,0,0,1-.256.52,4.741,4.741,0,0,0-1.4,2.878,1.472,1.472,0,0,0,.22.769.569.569,0,0,1,.1.264.231.231,0,0,1-.088.168.3.3,0,0,1-.227.1.592.592,0,0,1-.505-.381,1.783,1.783,0,0,1-.2-.872,4.236,4.236,0,0,1,.747-2.19A5.85,5.85,0,0,0,13.323-.923q-.22.388-.469.388a.266.266,0,0,1-.205-.088.357.357,0,0,1-.1-.264,7.216,7.216,0,0,1,.9-2.073q.483-.908.762-1.318t.476-.4a.259.259,0,0,1,.183.088.323.323,0,0,1,.1.234.933.933,0,0,1-.212.461A7.829,7.829,0,0,0,14.261-3.083ZM19.1-4.849q.732-1.531,1.384-2.666A14.336,14.336,0,0,1,21.344-8.9a.663.663,0,0,1,.469-.315.294.294,0,0,1,.212.1.3.3,0,0,1,.088.205,1.328,1.328,0,0,1-.249.564Q20.8-6.636,19.915-4.871A7.918,7.918,0,0,0,18.89-1.787a1.175,1.175,0,0,0,.161.659,1.464,1.464,0,0,0,.264.234.187.187,0,0,1,.044.146.382.382,0,0,1-.114.267.341.341,0,0,1-.253.121.568.568,0,0,1-.374-.205,1.193,1.193,0,0,1-.352-.674q-.022-.161-.051-.6Q17.447-.454,16.751-.454a.724.724,0,0,1-.645-.454,1.418,1.418,0,0,1-.161-.681,3.922,3.922,0,0,1,.835-2.3,2.274,2.274,0,0,1,1.78-1.143A.987.987,0,0,1,19.1-4.849Zm-.249.6a.651.651,0,0,0-.344-.132,1.5,1.5,0,0,0-1.165.754,3.217,3.217,0,0,0-.725,1.9.483.483,0,0,0,.044.205.281.281,0,0,0,.264.183q.256,0,.623-.5a8.815,8.815,0,0,0,.908-1.56q.146-.308.286-.615l.066-.139Zm3.963-1.187a1.178,1.178,0,0,1,.681.161.561.561,0,0,1,.227.491,1.323,1.323,0,0,1-.322.835,2.127,2.127,0,0,1-.923.615,1.693,1.693,0,0,1-.564.125q-.308,0-.308-.271a.3.3,0,0,1,.176-.278q.044-.022.5-.125a1.108,1.108,0,0,0,.5-.256.482.482,0,0,0,.2-.366.279.279,0,0,0-.088-.227.4.4,0,0,0-.264-.073,1.723,1.723,0,0,0-.937.344,1.106,1.106,0,0,0-.593.923,1.831,1.831,0,0,0,.388.952,1.981,1.981,0,0,1,.432,1.055A1.142,1.142,0,0,1,21.344-.52a1.439,1.439,0,0,1-.8.227A1.238,1.238,0,0,1,19.476-.8a1.423,1.423,0,0,1-.256-.85,1.547,1.547,0,0,1,.293-.959.518.518,0,0,1,.4-.256q.183,0,.183.146a.415.415,0,0,1-.066.176,1.546,1.546,0,0,0-.168.74.815.815,0,0,0,.256.608.727.727,0,0,0,.52.22.554.554,0,0,0,.447-.19.627.627,0,0,0,.132-.41,1.519,1.519,0,0,0-.352-.8A2.167,2.167,0,0,1,20.377-3.6a1.594,1.594,0,0,1,.8-1.3A2.819,2.819,0,0,1,22.816-5.435Zm8.035.088q-.579.564-1.406,1.3a9.378,9.378,0,0,1-.835.674,1.333,1.333,0,0,1-.8.278.69.69,0,0,1-.637-.439,1.114,1.114,0,0,1-.117-.505A5.063,5.063,0,0,1,27.8-6.328,10.177,10.177,0,0,1,29.643-8.7q1.165-1.15,1.648-1.15a.281.281,0,0,1,.205.088.3.3,0,0,1,.081.212.433.433,0,0,1-.146.337,2.625,2.625,0,0,1-.344.242,6.551,6.551,0,0,0-1.018.85,8.12,8.12,0,0,0-1.538,2.058,4.652,4.652,0,0,0-.63,1.729.321.321,0,0,0,.066.2.273.273,0,0,0,.234.125,2.058,2.058,0,0,0,.952-.535,10.5,10.5,0,0,0,1.3-1.165,33.269,33.269,0,0,0,2.175-2.542q.7-.945,1.172-1.509.4-.476.623-.476a.3.3,0,0,1,.249.146.467.467,0,0,1,.081.271,1.081,1.081,0,0,1-.278.615Q32.492-6.6,31.847-5.654a21.535,21.535,0,0,0-1.692,3.01,22.055,22.055,0,0,0-1,2.366,1.9,1.9,0,0,1-.315.7.455.455,0,0,1-.33.146q-.344,0-.344-.33a5.08,5.08,0,0,1,.461-1.465A19.285,19.285,0,0,1,29.95-3.838Q30.617-4.937,30.851-5.347Zm3.333.051q.6,0,.6.732a5.136,5.136,0,0,1-.9,2.468Q32.9-.476,31.987-.476a.654.654,0,0,1-.623-.4,1.023,1.023,0,0,1-.1-.476,4.075,4.075,0,0,1,.645-2.036A4.93,4.93,0,0,1,33.32-4.966,1.564,1.564,0,0,1,34.184-5.3Zm-.762,2.769q-.183-.146-.183-.227,0-.059.234-.322a2.086,2.086,0,0,0,.659-1.194.22.22,0,0,0-.037-.117.194.194,0,0,0-.183-.11q-.234,0-.688.454a4.621,4.621,0,0,0-.894,1.208,2.767,2.767,0,0,0-.359,1.179.377.377,0,0,0,.066.22.287.287,0,0,0,.242.132q.352,0,.754-.527a2.27,2.27,0,0,0,.286-.454A1.376,1.376,0,0,0,33.422-2.527Zm2.842.835a7.706,7.706,0,0,1-.557.7,1.179,1.179,0,0,1-.842.469.62.62,0,0,1-.557-.322,1.017,1.017,0,0,1-.139-.542,4.092,4.092,0,0,1,.806-2.168,3.838,3.838,0,0,1,.74-.872.821.821,0,0,1,.469-.242.266.266,0,0,1,.19.088.242.242,0,0,1,.073.161.927.927,0,0,1-.271.454,7.518,7.518,0,0,0-.923,1.333,2.679,2.679,0,0,0-.366,1.113.233.233,0,0,0,.048.157.17.17,0,0,0,.135.055q.374,0,1.04-1.069A6.84,6.84,0,0,0,36.7-3.6a2.508,2.508,0,0,1,.344-.652.552.552,0,0,1,.4-.256.264.264,0,0,1,.2.1.326.326,0,0,1,.1.227A3.664,3.664,0,0,1,37.238-3a2.368,2.368,0,0,0-.344,1.062,1.257,1.257,0,0,0,.242.776,1.589,1.589,0,0,0,.4.278.33.33,0,0,1,.161.308.288.288,0,0,1-.114.227.413.413,0,0,1-.275.1.935.935,0,0,1-.666-.293,1.29,1.29,0,0,1-.344-.762Q36.286-1.377,36.264-1.692Zm9.068.037A26.118,26.118,0,0,1,46.768-5.1q.652-1.282,1.75-3.215a13.171,13.171,0,0,1,1.069-1.707.728.728,0,0,1,.527-.278q.234,0,.234.205a.614.614,0,0,1-.1.286q-.1.168-.608.989A39.211,39.211,0,0,0,47.17-4.3q-.7,1.589-1.208,3.113a2.554,2.554,0,0,1-.4.813.88.88,0,0,1-.652.4q-.3,0-.381-.432a3.983,3.983,0,0,1-.037-.674,24.661,24.661,0,0,1,.344-3.889,29.7,29.7,0,0,1,.623-3.01,21.017,21.017,0,0,0-2.1,3.252A20.239,20.239,0,0,0,41.7-1.069a5.477,5.477,0,0,1-.33.872.562.562,0,0,1-.491.322.27.27,0,0,1-.212-.1.275.275,0,0,1-.073-.176,6.259,6.259,0,0,1,.476-1.472A30,30,0,0,1,43.113-5.6q.85-1.443,2.021-3.069a6.212,6.212,0,0,1,.828-1,.757.757,0,0,1,.469-.205.262.262,0,0,1,.168.059.243.243,0,0,1,.1.2.9.9,0,0,1-.073.33,19.253,19.253,0,0,0-.725,2.5,19.974,19.974,0,0,0-.593,4.373Q45.31-2.168,45.332-1.655Zm2.732-.322v.132a.479.479,0,0,0,.081.278.672.672,0,0,0,.6.271q.916,0,2.117-1.406.212-.242.359-.242a.189.189,0,0,1,.146.081.187.187,0,0,1,.044.11q0,.286-.7.967a5.293,5.293,0,0,1-1.172.872,2.454,2.454,0,0,1-1.157.337,1.061,1.061,0,0,1-.864-.381,1.112,1.112,0,0,1-.212-.718A3.485,3.485,0,0,1,48.467-4.1a2.574,2.574,0,0,1,1.648-.967.554.554,0,0,1,.344.117.493.493,0,0,1,.19.4,1.888,1.888,0,0,1-.359.952A3.818,3.818,0,0,1,48.064-1.978Zm.161-.571a2.944,2.944,0,0,0,.806-.4,3.253,3.253,0,0,0,.813-.894.612.612,0,0,0,.11-.315q0-.146-.139-.146a1.028,1.028,0,0,0-.542.286A3.749,3.749,0,0,0,48.225-2.549Zm3.34.571v.132a.479.479,0,0,0,.081.278.672.672,0,0,0,.6.271q.916,0,2.117-1.406.212-.242.359-.242a.189.189,0,0,1,.146.081.187.187,0,0,1,.044.11q0,.286-.7.967a5.292,5.292,0,0,1-1.172.872,2.454,2.454,0,0,1-1.157.337,1.061,1.061,0,0,1-.864-.381,1.112,1.112,0,0,1-.212-.718A3.485,3.485,0,0,1,51.968-4.1a2.574,2.574,0,0,1,1.648-.967.554.554,0,0,1,.344.117.493.493,0,0,1,.19.4,1.888,1.888,0,0,1-.359.952A3.818,3.818,0,0,1,51.565-1.978Zm.161-.571a2.944,2.944,0,0,0,.806-.4,3.253,3.253,0,0,0,.813-.894.612.612,0,0,0,.11-.315q0-.146-.139-.146a1.028,1.028,0,0,0-.542.286A3.749,3.749,0,0,0,51.726-2.549Zm5.72-2.3q.732-1.531,1.384-2.666A14.335,14.335,0,0,1,59.688-8.9a.663.663,0,0,1,.469-.315.294.294,0,0,1,.212.1.3.3,0,0,1,.088.205,1.328,1.328,0,0,1-.249.564Q59.146-6.636,58.26-4.871a7.918,7.918,0,0,0-1.025,3.083,1.175,1.175,0,0,0,.161.659,1.464,1.464,0,0,0,.264.234.187.187,0,0,1,.044.146.382.382,0,0,1-.114.267.341.341,0,0,1-.253.121.568.568,0,0,1-.374-.205,1.193,1.193,0,0,1-.352-.674q-.022-.161-.051-.6Q55.792-.454,55.1-.454a.724.724,0,0,1-.645-.454,1.418,1.418,0,0,1-.161-.681,3.922,3.922,0,0,1,.835-2.3A2.274,2.274,0,0,1,56.9-5.032.987.987,0,0,1,57.447-4.849Zm-.249.6a.651.651,0,0,0-.344-.132,1.5,1.5,0,0,0-1.165.754,3.217,3.217,0,0,0-.725,1.9.483.483,0,0,0,.044.205.281.281,0,0,0,.264.183q.256,0,.623-.5A8.815,8.815,0,0,0,56.8-3.4q.146-.308.286-.615l.066-.139Zm4.424,3.142a.328.328,0,0,1,.271.146.385.385,0,0,1,.073.242,1.624,1.624,0,0,1-.19.725.592.592,0,0,1-.52.4q-.337,0-.337-.381a1.518,1.518,0,0,1,.234-.776Q61.366-1.106,61.622-1.106Zm2.483,0a.328.328,0,0,1,.271.146.385.385,0,0,1,.073.242,1.624,1.624,0,0,1-.19.725.592.592,0,0,1-.52.4Q63.4.41,63.4.029a1.518,1.518,0,0,1,.234-.776Q63.849-1.106,64.105-1.106Zm2.483,0a.328.328,0,0,1,.271.146.385.385,0,0,1,.073.242,1.624,1.624,0,0,1-.19.725.592.592,0,0,1-.52.4q-.337,0-.337-.381a1.518,1.518,0,0,1,.234-.776Q66.332-1.106,66.588-1.106Z" transform="translate(0.513 10.305)" fill="#395077" opacity="0.53"/>
</svg>
