<svg xmlns="http://www.w3.org/2000/svg" width="19.839" height="19.839" viewBox="0 0 19.839 19.839">
  <path id="compare" d="M20.672,5.084H13.586V3.667A1.417,1.417,0,0,0,12.169,2.25h-8.5A1.417,1.417,0,0,0,2.25,3.667V17.838a1.417,1.417,0,0,0,1.417,1.417h7.085v1.417a1.417,1.417,0,0,0,1.417,1.417h8.5a1.417,1.417,0,0,0,1.417-1.417V6.5A1.417,1.417,0,0,0,20.672,5.084Zm-17,6.377H8.039L6.211,13.3l1,1,3.543-3.543L7.21,7.21l-1,1,1.828,1.835H3.667V3.667h8.5V17.838h-8.5Zm8.5,9.211V19.255a1.417,1.417,0,0,0,1.417-1.417V6.5h7.085v6.377H16.3l1.828-1.835-1-1-3.543,3.543,3.543,3.543,1-1L16.3,14.3h4.371v6.377Z" transform="translate(-2.25 -2.25)" fill="#cdd4d9"/>
</svg>
