<svg id="eye" xmlns="http://www.w3.org/2000/svg" width="22.206" height="16.148" viewBox="0 0 22.206 16.148">
  <path id="Path_25027" data-name="Path 25027" d="M27,16.017,21.787,10.8l-.036.036a8.07,8.07,0,0,0-11.527.52l-4.85,4.851,0,0a.824.824,0,0,0,.1,1.2l5.263,5.262.011-.011a8.071,8.071,0,0,0,11.5-.534l.019.019L27.1,17.328q.03-.028.058-.058h0A.829.829,0,0,0,27,16.017Zm-10.757,6.2a5.472,5.472,0,1,1,5.472-5.472,5.471,5.471,0,0,1-5.472,5.472Z" transform="translate(-5.167 -8.667)" fill="#fff"/>
  <path id="Path_25028" data-name="Path 25028" d="M20.235,17.615a2.651,2.651,0,1,1-2.651-2.651A2.651,2.651,0,0,1,20.235,17.615Z" transform="translate(-6.483 -9.516)" fill="#fff"/>
</svg>
