<svg id="Group_2192" data-name="Group 2192" xmlns="http://www.w3.org/2000/svg" width="43" height="43" viewBox="0 0 43 43">
    <path id="Path_1" data-name="Path 1" d="M620.474,365.758h0a1.161,1.161,0,0,0,1.642,0l7.121-7.122a1.742,1.742,0,0,0,0-2.463l-7.121-7.121a1.161,1.161,0,0,0-1.642,0h0a1.61,1.61,0,0,0-.474,1.14v3.165a1.617,1.617,0,0,0,1.594,1.611h1.25a2.444,2.444,0,0,1,2.437,2.437h0a2.444,2.444,0,0,1-2.437,2.437H621.6a1.618,1.618,0,0,0-1.6,1.613v3.164a1.612,1.612,0,0,0,.474,1.14" transform="translate(-620 -345.059)" fill="#C1C8CE" opacity="0.62"/>
    <path id="Path_2" data-name="Path 2" d="M675.507,476.883h0a1.161,1.161,0,0,0,0-1.642l-7.121-7.121a1.742,1.742,0,0,0-2.463,0l-7.121,7.121a1.161,1.161,0,0,0,0,1.642h0a1.61,1.61,0,0,0,1.14.474H663.1a1.618,1.618,0,0,0,1.612-1.594v-1.25a2.444,2.444,0,0,1,2.437-2.437h0a2.444,2.444,0,0,1,2.437,2.437v1.246a1.618,1.618,0,0,0,1.613,1.6h3.164a1.612,1.612,0,0,0,1.14-.474" transform="translate(-654.808 -452.666)" fill="#C1C8CE"/>
    <path id="Path_3" data-name="Path 3" d="M786.633,349.052h0a1.161,1.161,0,0,0-1.642,0l-7.121,7.121a1.742,1.742,0,0,0,0,2.463l7.121,7.121a1.161,1.161,0,0,0,1.642,0h0a1.61,1.61,0,0,0,.474-1.14v-3.165a1.617,1.617,0,0,0-1.594-1.611h-1.25a2.444,2.444,0,0,1-2.437-2.437h0a2.444,2.444,0,0,1,2.437-2.437h1.246a1.618,1.618,0,0,0,1.6-1.613v-3.164a1.612,1.612,0,0,0-.474-1.14" transform="translate(-762.416 -345.059)" fill="#C1C8CE" opacity="0.62"/>
    <path id="Path_4" data-name="Path 4" d="M658.8,310.724h0a1.161,1.161,0,0,0,0,1.642l7.121,7.121a1.741,1.741,0,0,0,2.463,0l7.121-7.121a1.161,1.161,0,0,0,0-1.642h0a1.609,1.609,0,0,0-1.14-.474H671.2a1.617,1.617,0,0,0-1.611,1.594v1.25a2.444,2.444,0,0,1-2.437,2.437h0a2.444,2.444,0,0,1-2.437-2.437v-1.246a1.618,1.618,0,0,0-1.613-1.6h-3.164a1.612,1.612,0,0,0-1.14.474" transform="translate(-654.808 -310.25)" fill="#C1C8CE"/>
</svg>
