<svg xmlns="http://www.w3.org/2000/svg" width="51.895" height="34.373" viewBox="0 0 51.895 34.373">
  <g id="Group" transform="translate(0 0)">
    <path id="Vector" d="M5.138,34.373h0a4.025,4.025,0,0,1-3.131-1.326A6.659,6.659,0,0,1,.549,29.6a32.626,32.626,0,0,1-.524-7.538,35.6,35.6,0,0,1,1.085-7.557A31.122,31.122,0,0,1,4.641,6.081C7.1,2.048,10.263,0,14.052,0a14.5,14.5,0,0,1,7.771,2.653,5.3,5.3,0,0,0,2.737.921h.005l2.766,0a5.345,5.345,0,0,0,2.744-.923A14.5,14.5,0,0,1,37.844,0c3.789,0,6.955,2.045,9.41,6.079A31.115,31.115,0,0,1,50.785,14.5a35.574,35.574,0,0,1,1.084,7.556,32.572,32.572,0,0,1-.526,7.536,6.64,6.64,0,0,1-1.456,3.449,4.026,4.026,0,0,1-3.132,1.326c-.162,0-.329-.007-.5-.021-1.552-.13-4.058-2.321-5.886-4.136-1.983-1.968-3.617-3.929-3.633-3.948a3.7,3.7,0,0,0-2.5-1.173l-16.58,0a3.7,3.7,0,0,0-2.5,1.173c-.016.02-1.655,1.985-3.632,3.948-1.828,1.815-4.333,4.006-5.883,4.136C5.468,34.366,5.3,34.373,5.138,34.373ZM9.127,11.639h0a3.61,3.61,0,0,0-.464,2.046A2.726,2.726,0,0,0,9.2,15.246h3.358V18.6a2.368,2.368,0,0,0,1.69.627h.043a3.334,3.334,0,0,0,1.874-.561V15.244h3.556a4.228,4.228,0,0,0,.553-1.943,3.367,3.367,0,0,0-.634-1.663H16.277l.014-3.488a4.714,4.714,0,0,0-1.824-.429l-.114,0a3.875,3.875,0,0,0-1.67.364v3.555H9.127Zm26.9,1.884a2.813,2.813,0,1,0,2.813,2.813A2.817,2.817,0,0,0,36.027,13.523Zm7-3.584a2.813,2.813,0,1,0,2.813,2.813A2.816,2.816,0,0,0,43.028,9.939Zm-7-4.167A2.813,2.813,0,1,0,38.84,8.584,2.816,2.816,0,0,0,36.027,5.772Z" transform="translate(0 0)" fill="#456ed6"/>
  </g>
</svg>
