<svg id="Group_361" data-name="Group 361" xmlns="http://www.w3.org/2000/svg" width="22.759" height="22.758" viewBox="0 0 22.759 22.758">
  <path id="Vector" d="M1049.043,301.578l-.792,2.957-2.895.061a11.393,11.393,0,0,1-.084-10.625h0l2.578.472,1.13,2.563a6.794,6.794,0,0,0,.063,4.572Z" transform="translate(-1043.999 -287.825)" fill="#fbbb00"/>
  <path id="Vector-2" data-name="Vector" d="M1060.55,295.472a11.368,11.368,0,0,1-4.055,11h0l-3.246-.165-.46-2.869a6.783,6.783,0,0,0,2.919-3.463h-6.085v-4.5h10.929Z" transform="translate(-1037.991 -286.219)" fill="#518ef8"/>
  <path id="Vector-3" data-name="Vector" d="M1061.8,304.146h0a11.383,11.383,0,0,1-17.147-3.481l3.687-3.018a6.768,6.768,0,0,0,9.752,3.465Z" transform="translate(-1043.299 -283.895)" fill="#28b446"/>
  <path id="Vector-4" data-name="Vector" d="M1061.984,293.619l-3.687,3.018a6.766,6.766,0,0,0-9.975,3.543l-3.708-3.035h0a11.381,11.381,0,0,1,17.369-3.526Z" transform="translate(-1043.342 -291)" fill="#f14336"/>
</svg>
