<svg xmlns="http://www.w3.org/2000/svg" width="77" height="77" viewBox="0 0 77 77">
  <g id="Group_2192" data-name="Group 2192" transform="translate(0.304)">
    <circle id="Ellipse_139" data-name="Ellipse 139" cx="38.5" cy="38.5" r="38.5" transform="translate(-0.304)" fill="#0cb773"/>
    <g id="Group_36558" data-name="Group 36558" transform="translate(16.329 16.329)">
      <path id="Path_1" data-name="Path 1" d="M620.845,379.116h0a2.071,2.071,0,0,0,2.929,0l12.7-12.7a3.106,3.106,0,0,0,0-4.393l-12.7-12.7a2.071,2.071,0,0,0-2.929,0h0a2.872,2.872,0,0,0-.845,2.033V357a2.885,2.885,0,0,0,2.843,2.874h2.229a4.359,4.359,0,0,1,4.347,4.346h0a4.36,4.36,0,0,1-4.347,4.347h-2.223A2.886,2.886,0,0,0,620,371.439v5.643a2.875,2.875,0,0,0,.845,2.033" transform="translate(-620 -342.197)" fill="#fff" opacity="0.62"/>
      <path id="Path_2" data-name="Path 2" d="M688.865,484.15h0a2.071,2.071,0,0,0,0-2.929l-12.7-12.7a3.106,3.106,0,0,0-4.393,0l-12.7,12.7a2.071,2.071,0,0,0,0,2.929h0A2.872,2.872,0,0,0,661.1,485h5.644a2.885,2.885,0,0,0,2.875-2.843v-2.229a4.359,4.359,0,0,1,4.346-4.347h0a4.359,4.359,0,0,1,4.347,4.347v2.223A2.886,2.886,0,0,0,681.189,485h5.643a2.875,2.875,0,0,0,2.033-.845" transform="translate(-651.946 -440.955)" fill="#fff"/>
      <path id="Path_3" data-name="Path 3" d="M793.9,349.318h0a2.071,2.071,0,0,0-2.929,0l-12.7,12.7a3.106,3.106,0,0,0,0,4.393l12.7,12.7a2.071,2.071,0,0,0,2.929,0h0a2.871,2.871,0,0,0,.845-2.033v-5.644a2.885,2.885,0,0,0-2.843-2.874h-2.229a4.359,4.359,0,0,1-4.346-4.346h0a4.36,4.36,0,0,1,4.347-4.347H791.9a2.886,2.886,0,0,0,2.849-2.877v-5.643a2.875,2.875,0,0,0-.845-2.033" transform="translate(-750.705 -342.197)" fill="#fff" opacity="0.62"/>
      <path id="Path_4" data-name="Path 4" d="M659.067,311.1h0a2.071,2.071,0,0,0,0,2.929l12.7,12.7a3.106,3.106,0,0,0,4.393,0l12.7-12.7a2.071,2.071,0,0,0,0-2.929h0a2.871,2.871,0,0,0-2.033-.845h-5.645a2.885,2.885,0,0,0-2.874,2.843v2.229a4.359,4.359,0,0,1-4.346,4.347h0a4.359,4.359,0,0,1-4.346-4.347V313.1a2.886,2.886,0,0,0-2.877-2.849H661.1a2.875,2.875,0,0,0-2.033.845" transform="translate(-651.946 -310.25)" fill="#fff"/>
    </g>
  </g>
</svg>
