<svg id="Group" xmlns="http://www.w3.org/2000/svg" width="45.839" height="45.841" viewBox="0 0 45.839 45.841">
  <g id="Group-2" data-name="Group">
    <path id="Vector" d="M2139.99,683h13.161a3.493,3.493,0,0,1,3.49,3.49v13.161a3.493,3.493,0,0,1-3.49,3.49H2139.99a3.494,3.494,0,0,1-3.49-3.49V686.49A3.5,3.5,0,0,1,2139.99,683Z" transform="translate(-2110.802 -683)" fill="#b8b8b8"/>
    <path id="Vector-2" data-name="Vector" d="M2152.323,683h13.161a3.494,3.494,0,0,1,3.49,3.49v13.161a3.5,3.5,0,0,1-3.49,3.49h-13.161a3.494,3.494,0,0,1-3.49-3.49V686.49A3.493,3.493,0,0,1,2152.323,683Z" transform="translate(-2148.833 -683)" fill="#b8b8b8"/>
    <path id="Vector-3" data-name="Vector" d="M2139.99,695.334h13.161a3.493,3.493,0,0,1,3.49,3.49v13.161a3.493,3.493,0,0,1-3.49,3.49H2139.99a3.494,3.494,0,0,1-3.49-3.49V698.824A3.5,3.5,0,0,1,2139.99,695.334Z" transform="translate(-2110.802 -669.634)" fill="#b8b8b8"/>
    <path id="Vector-4" data-name="Vector" d="M2152.323,695.334h13.161a3.494,3.494,0,0,1,3.49,3.49v13.161a3.5,3.5,0,0,1-3.49,3.49h-13.161a3.494,3.494,0,0,1-3.49-3.49V698.824A3.493,3.493,0,0,1,2152.323,695.334Z" transform="translate(-2148.833 -669.634)" fill="#b8b8b8"/>
  </g>
</svg>
