<svg xmlns="http://www.w3.org/2000/svg" width="16.001" height="16" viewBox="0 0 16.001 16">
  <g id="Group_2192" data-name="Group 2192" transform="translate(0.402 -0.509)">
    <path id="Subtraction_2" data-name="Subtraction 2" d="M7021.6,4651.509a8,8,0,1,1,8-8A8.01,8.01,0,0,1,7021.6,4651.509Zm0-5.338a.918.918,0,0,1,.917.917v.471a.61.61,0,0,0,.608.6h1.191a.6.6,0,0,0,.429-.178.437.437,0,0,0,0-.619l-2.682-2.684a.658.658,0,0,0-.928,0l-2.684,2.684a.437.437,0,0,0,0,.619.611.611,0,0,0,.429.178h1.193a.613.613,0,0,0,.608-.6v-.471A.918.918,0,0,1,7021.6,4646.17Zm4.163-5.937a.437.437,0,0,0-.31.128l-2.682,2.684a.651.651,0,0,0,0,.926l2.682,2.683a.436.436,0,0,0,.619,0,.6.6,0,0,0,.178-.429v-1.192a.611.611,0,0,0-.6-.607h-.471a.918.918,0,1,1,0-1.836h.469a.61.61,0,0,0,.6-.607v-1.193a.6.6,0,0,0-.178-.429A.437.437,0,0,0,7025.761,4640.234Zm-8.211,4.193a.608.608,0,0,0-.6.607v1.192a.6.6,0,0,0,.18.429.434.434,0,0,0,.617,0l2.684-2.683a.655.655,0,0,0,0-.926l-2.684-2.684a.435.435,0,0,0-.617,0,.605.605,0,0,0-.18.429v1.193a.61.61,0,0,0,.6.607h.469a.918.918,0,1,1,0,1.836Zm1.33-5.57a.611.611,0,0,0-.429.178.44.44,0,0,0,0,.619l2.684,2.684a.655.655,0,0,0,.928,0l2.682-2.684a.44.44,0,0,0,0-.619.6.6,0,0,0-.429-.178h-1.191a.609.609,0,0,0-.608.6v.471a.917.917,0,0,1-1.835,0v-.469a.613.613,0,0,0-.608-.6Z" transform="translate(-7014 -4635)" fill="#456ed6"/>
  </g>
</svg>
