<svg xmlns="http://www.w3.org/2000/svg" width="248" height="65" viewBox="0 0 248 65">
  <g id="Group_36808" data-name="Group 36808" transform="translate(-334.694 -79.964)">
    <g id="Group_2192" data-name="Group 2192" transform="translate(517.73 79.999)">
      <circle id="Ellipse_139" data-name="Ellipse 139" cx="32.5" cy="32.5" r="32.5" transform="translate(-0.035 -0.035)" fill="#cdd4d9"/>
      <g id="Group_36558" data-name="Group 36558" transform="translate(13.758 13.758)">
        <path id="Path_1" data-name="Path 1" d="M620.717,374.5h0a1.757,1.757,0,0,0,2.484,0l10.774-10.775a2.635,2.635,0,0,0,0-3.726L623.2,349.226a1.757,1.757,0,0,0-2.484,0h0A2.436,2.436,0,0,0,620,350.95v4.788a2.447,2.447,0,0,0,2.411,2.438H624.3a3.7,3.7,0,0,1,3.687,3.687h0a3.7,3.7,0,0,1-3.687,3.687h-1.885A2.448,2.448,0,0,0,620,367.99v4.787a2.438,2.438,0,0,0,.717,1.724" transform="translate(-620 -343.185)" fill="#fff" opacity="0.62"/>
        <path id="Path_2" data-name="Path 2" d="M684.251,481.64h0a1.756,1.756,0,0,0,0-2.484l-10.774-10.775a2.635,2.635,0,0,0-3.727,0l-10.775,10.775a1.757,1.757,0,0,0,0,2.484h0a2.436,2.436,0,0,0,1.725.717h4.788a2.447,2.447,0,0,0,2.438-2.411v-1.891a3.7,3.7,0,0,1,3.687-3.687h0a3.7,3.7,0,0,1,3.687,3.687v1.885a2.448,2.448,0,0,0,2.44,2.417h4.787a2.438,2.438,0,0,0,1.724-.717" transform="translate(-652.935 -445)" fill="#fff"/>
        <path id="Path_3" data-name="Path 3" d="M791.39,349.226h0a1.756,1.756,0,0,0-2.484,0L778.131,360a2.635,2.635,0,0,0,0,3.727L788.906,374.5a1.757,1.757,0,0,0,2.484,0h0a2.435,2.435,0,0,0,.717-1.724V367.99a2.447,2.447,0,0,0-2.411-2.438H787.8a3.7,3.7,0,0,1-3.687-3.687h0a3.7,3.7,0,0,1,3.687-3.687h1.885a2.448,2.448,0,0,0,2.417-2.44v-4.787a2.439,2.439,0,0,0-.717-1.724" transform="translate(-754.75 -343.186)" fill="#fff" opacity="0.62"/>
        <path id="Path_4" data-name="Path 4" d="M658.975,310.967h0a1.757,1.757,0,0,0,0,2.484l10.775,10.774a2.635,2.635,0,0,0,3.726,0l10.775-10.774a1.756,1.756,0,0,0,0-2.484h0a2.435,2.435,0,0,0-1.724-.717h-4.788a2.447,2.447,0,0,0-2.438,2.411v1.891a3.7,3.7,0,0,1-3.687,3.687h0a3.7,3.7,0,0,1-3.687-3.687v-1.885a2.448,2.448,0,0,0-2.44-2.417H660.7a2.439,2.439,0,0,0-1.725.717" transform="translate(-652.935 -310.25)" fill="#fff"/>
      </g>
    </g>
    <text id="Contact" transform="translate(500.694 107.965)" fill="#395077" font-size="20" font-family="SegoeUI-Bold, Segoe UI" font-weight="700" letter-spacing="0.025em"><tspan x="-165" y="0">FRATELLO</tspan><tspan y="0" font-family="FFShamelFamily-UniqueBold, FF Shamel Family Unique"> </tspan><tspan y="0">STORE</tspan></text>
    <path id="Call_Center" data-name="Call Center" d="M6.6-3.39a3.991,3.991,0,0,1,1.574.942A3.113,3.113,0,0,1,9.084-.232a5.066,5.066,0,0,1-.92,2.881A6.32,6.32,0,0,1,5.959,4.633a5.777,5.777,0,0,1-2.781.731A5.98,5.98,0,0,1,.784,4.8q-.1.3-.122.4-.144.521-.454.521a.662.662,0,0,1-.554-.366.943.943,0,0,1-.166-.521A6.017,6.017,0,0,1-.025,3.2a43.355,43.355,0,0,1,1.751-4q.465-.9,1.928-3.413Q4.3-5.3,5.5-7.169q.288-.443.554-.9a11.323,11.323,0,0,0-1.385.576,3.822,3.822,0,0,1-.831.332.352.352,0,0,1-.288-.166.638.638,0,0,1-.122-.388.555.555,0,0,1,.233-.5,8.265,8.265,0,0,1,1.507-.742,10.4,10.4,0,0,1,3.668-.92,2.951,2.951,0,0,1,1.906.587,1.815,1.815,0,0,1,.731,1.474A3.773,3.773,0,0,1,9.361-4.654,11.857,11.857,0,0,1,6.6-3.39ZM4.939-4.077A10.5,10.5,0,0,0,8.485-5.418q1.928-1.164,1.928-2.316a.923.923,0,0,0-.51-.831,1.815,1.815,0,0,0-.931-.2,4.522,4.522,0,0,0-.831.083,7.172,7.172,0,0,0-.942.249.432.432,0,0,1,.188.355,1.472,1.472,0,0,1-.366.776q-.122.166-.443.654-.122.211-.742,1.119A15.442,15.442,0,0,0,4.939-4.077ZM1.094,3.857a4.111,4.111,0,0,0,.554.288,3.5,3.5,0,0,0,1.263.188A4.5,4.5,0,0,0,6.69,2.461,5.155,5.155,0,0,0,7.9-.653,1.888,1.888,0,0,0,6.978-2.3,2.278,2.278,0,0,0,5.7-2.659a4.108,4.108,0,0,0-.82.122.917.917,0,0,1-.2.022q-.266,0-.443-.388A29.438,29.438,0,0,0,2.247.876,31.933,31.933,0,0,0,1.094,3.857ZM10.857.776a21.633,21.633,0,0,1,2.5-2.272,10.4,10.4,0,0,1,1.086-.742,1.135,1.135,0,0,1,.366-.166q.166,0,.332.244a.419.419,0,0,1,.1.244q0,.2-.421.543-1.13.9-1.13,1.352,0,.255.288.255a3.793,3.793,0,0,0,1.64-.787.646.646,0,0,1,.332-.133.255.255,0,0,1,.177.089.3.3,0,0,1,.1.211q0,.332-.931,1.019a3.133,3.133,0,0,1-1.851.731,1.2,1.2,0,0,1-.654-.188.6.6,0,0,1-.255-.554,1.192,1.192,0,0,1,.233-.632,10.957,10.957,0,0,0-2.061,2.128A15.414,15.414,0,0,0,9.35,4.411q-.255.51-.632.51-.41,0-.41-.388a8.758,8.758,0,0,1,.643-2.017,15.352,15.352,0,0,1,1.995-3.779q.643-.831,1.075-.831a.443.443,0,0,1,.266.089.337.337,0,0,1,.144.277.908.908,0,0,1-.222.465l-.587.742A5.829,5.829,0,0,0,10.857.776ZM18.1,2.594a8.381,8.381,0,0,1-.72,1.086A1.889,1.889,0,0,1,16,4.544a1.032,1.032,0,0,1-.931-.565,1.7,1.7,0,0,1-.211-.864A5.945,5.945,0,0,1,15.633.4a7.172,7.172,0,0,1,2.083-2.538,2.649,2.649,0,0,1,1.54-.576,1.1,1.1,0,0,1,.776.288.78.78,0,0,1,.266.576,1.847,1.847,0,0,1-.188.676.74.74,0,0,1,.166.41,1.859,1.859,0,0,1-.31.765,8.539,8.539,0,0,0-.643,1.441A4.8,4.8,0,0,0,18.98,2.97a1.081,1.081,0,0,0,.277.765,2.091,2.091,0,0,0,.454.255.474.474,0,0,1,.277.465.432.432,0,0,1-.155.344.574.574,0,0,1-.388.144,1.292,1.292,0,0,1-1.031-.532,1.656,1.656,0,0,1-.355-1.086Q18.06,3.1,18.1,2.594ZM19.49-1.052a1.1,1.1,0,0,0-.288-.36.544.544,0,0,0-.332-.116q-.842,0-1.828,1.474A5.306,5.306,0,0,0,15.955,2.7a.708.708,0,0,0,.105.421.366.366,0,0,0,.316.144q.532,0,1.241-1.13A18.7,18.7,0,0,0,18.6.311a9.659,9.659,0,0,1,.565-1.042A1.616,1.616,0,0,1,19.49-1.052ZM21.839.621q.144-.133.277-.266,2.316-2.261,3.1-2.261.432,0,.432.476a1.314,1.314,0,0,1-.388.787q-2.117,2.471-2.117,4.355a2.228,2.228,0,0,0,.332,1.164.861.861,0,0,1,.155.4.349.349,0,0,1-.133.255.453.453,0,0,1-.344.155.9.9,0,0,1-.765-.576,2.7,2.7,0,0,1-.3-1.319A6.409,6.409,0,0,1,23.225.477a8.851,8.851,0,0,0-2.8,3.413q-.332.587-.709.587a.4.4,0,0,1-.31-.133.54.54,0,0,1-.155-.4A10.918,10.918,0,0,1,20.609.809q.731-1.374,1.152-1.995t.72-.609a.392.392,0,0,1,.277.133.488.488,0,0,1,.155.355,1.411,1.411,0,0,1-.321.7A11.844,11.844,0,0,0,21.839.621ZM29.164-2.05q1.108-2.316,2.094-4.034a21.69,21.69,0,0,1,1.3-2.094,1,1,0,0,1,.709-.476.445.445,0,0,1,.321.144.451.451,0,0,1,.133.31,2.01,2.01,0,0,1-.377.853q-1.607,2.593-2.948,5.264a11.98,11.98,0,0,0-1.551,4.665,1.778,1.778,0,0,0,.244,1,2.215,2.215,0,0,0,.4.355.283.283,0,0,1,.066.222.578.578,0,0,1-.172.4A.516.516,0,0,1,29,4.743a.859.859,0,0,1-.565-.31A1.805,1.805,0,0,1,27.9,3.414q-.033-.244-.078-.909Q26.66,4.6,25.607,4.6a1.1,1.1,0,0,1-.975-.687,2.145,2.145,0,0,1-.244-1.031A5.934,5.934,0,0,1,25.652-.6a3.441,3.441,0,0,1,2.693-1.729A1.493,1.493,0,0,1,29.164-2.05Zm-.377.909a.985.985,0,0,0-.521-.2A2.272,2.272,0,0,0,26.5-.2a4.868,4.868,0,0,0-1.1,2.87.731.731,0,0,0,.066.31.426.426,0,0,0,.4.277q.388,0,.942-.754A13.337,13.337,0,0,0,28.189.145q.222-.465.432-.931l.1-.211Zm6-1.8a1.783,1.783,0,0,1,1.031.244.849.849,0,0,1,.344.742A2,2,0,0,1,35.67-.687a3.218,3.218,0,0,1-1.4.931,2.562,2.562,0,0,1-.853.188q-.465,0-.465-.41A.456.456,0,0,1,33.221-.4q.066-.033.754-.188a1.677,1.677,0,0,0,.754-.388.729.729,0,0,0,.3-.554.422.422,0,0,0-.133-.344.612.612,0,0,0-.4-.111,2.607,2.607,0,0,0-1.418.521,1.673,1.673,0,0,0-.9,1.4,2.77,2.77,0,0,0,.587,1.441,3,3,0,0,1,.654,1.6A1.727,1.727,0,0,1,32.556,4.5a2.178,2.178,0,0,1-1.208.344,1.873,1.873,0,0,1-1.618-.765,2.153,2.153,0,0,1-.388-1.285,2.341,2.341,0,0,1,.443-1.452.783.783,0,0,1,.6-.388q.277,0,.277.222a.628.628,0,0,1-.1.266,2.339,2.339,0,0,0-.255,1.119,1.233,1.233,0,0,0,.388.92,1.1,1.1,0,0,0,.787.332.838.838,0,0,0,.676-.288.948.948,0,0,0,.2-.621A2.3,2.3,0,0,0,31.824,1.7a3.278,3.278,0,0,1-.731-1.851A2.412,2.412,0,0,1,32.3-2.116,4.265,4.265,0,0,1,34.783-2.936ZM46.94-2.8q-.875.853-2.128,1.972A14.188,14.188,0,0,1,43.549.189,2.017,2.017,0,0,1,42.341.61a1.043,1.043,0,0,1-.964-.665A1.686,1.686,0,0,1,41.2-.82a7.66,7.66,0,0,1,1.13-3.468,15.4,15.4,0,0,1,2.781-3.59q1.762-1.74,2.493-1.74a.425.425,0,0,1,.31.133.459.459,0,0,1,.122.321.655.655,0,0,1-.222.51,3.972,3.972,0,0,1-.521.366A9.912,9.912,0,0,0,45.754-7a12.285,12.285,0,0,0-2.327,3.114,7.039,7.039,0,0,0-.953,2.615.486.486,0,0,0,.1.3.414.414,0,0,0,.355.188A3.114,3.114,0,0,0,44.369-1.6a15.884,15.884,0,0,0,1.972-1.762A50.336,50.336,0,0,0,49.633-7.2q1.053-1.429,1.773-2.283.609-.72.942-.72a.452.452,0,0,1,.377.222.706.706,0,0,1,.122.41,1.635,1.635,0,0,1-.421.931q-3,3.945-3.978,5.374a32.582,32.582,0,0,0-2.56,4.554,33.368,33.368,0,0,0-1.518,3.579,2.869,2.869,0,0,1-.477,1.053.689.689,0,0,1-.5.222q-.521,0-.521-.5a7.686,7.686,0,0,1,.7-2.216A29.178,29.178,0,0,1,45.577-.52Q46.585-2.183,46.94-2.8Zm5.042.078q.909,0,.909,1.108a7.771,7.771,0,0,1-1.363,3.734q-1.485,2.449-2.87,2.449a.989.989,0,0,1-.942-.6,1.548,1.548,0,0,1-.155-.72A6.166,6.166,0,0,1,48.536.167a7.458,7.458,0,0,1,2.139-2.394A2.366,2.366,0,0,1,51.982-2.726ZM50.83,1.463q-.277-.222-.277-.344,0-.089.355-.488a3.156,3.156,0,0,0,1-1.806.332.332,0,0,0-.055-.177.293.293,0,0,0-.277-.166q-.355,0-1.042.687A6.991,6.991,0,0,0,49.179,1a4.186,4.186,0,0,0-.543,1.784.57.57,0,0,0,.1.332.435.435,0,0,0,.366.2q.532,0,1.141-.8a3.434,3.434,0,0,0,.432-.687A2.082,2.082,0,0,0,50.83,1.463Zm4.3,1.263a11.66,11.66,0,0,1-.842,1.064,1.785,1.785,0,0,1-1.274.709.938.938,0,0,1-.842-.488,1.539,1.539,0,0,1-.211-.82,6.191,6.191,0,0,1,1.219-3.28A5.806,5.806,0,0,1,54.3-1.407a1.242,1.242,0,0,1,.709-.366.4.4,0,0,1,.288.133.366.366,0,0,1,.111.244A1.4,1.4,0,0,1,55-.709a11.375,11.375,0,0,0-1.4,2.017,4.054,4.054,0,0,0-.554,1.684.353.353,0,0,0,.072.238.257.257,0,0,0,.2.083q.565,0,1.574-1.618a10.35,10.35,0,0,0,.9-1.862,3.8,3.8,0,0,1,.521-.986.836.836,0,0,1,.609-.388.4.4,0,0,1,.3.144.494.494,0,0,1,.144.344A5.544,5.544,0,0,1,56.6.743a3.582,3.582,0,0,0-.521,1.607,1.9,1.9,0,0,0,.366,1.175,2.4,2.4,0,0,0,.609.421.5.5,0,0,1,.244.465.435.435,0,0,1-.172.344.625.625,0,0,1-.416.144,1.414,1.414,0,0,1-1.008-.443A1.951,1.951,0,0,1,55.185,3.3Q55.163,3.2,55.13,2.727Zm13.719.055a39.517,39.517,0,0,1,2.172-5.219Q72.007-4.377,73.67-7.3a19.927,19.927,0,0,1,1.618-2.582,1.1,1.1,0,0,1,.8-.421q.355,0,.355.31a.929.929,0,0,1-.155.432q-.144.255-.92,1.5a59.326,59.326,0,0,0-3.734,6.848q-1.064,2.4-1.828,4.71a3.864,3.864,0,0,1-.609,1.23,1.331,1.331,0,0,1-.986.6q-.454,0-.576-.654a6.027,6.027,0,0,1-.055-1.019A37.312,37.312,0,0,1,68.1-2.238a44.934,44.934,0,0,1,.942-4.554,31.8,31.8,0,0,0-3.18,4.92,30.621,30.621,0,0,0-2.5,5.541,8.286,8.286,0,0,1-.5,1.319.85.85,0,0,1-.742.488.409.409,0,0,1-.321-.155.416.416,0,0,1-.111-.266,9.47,9.47,0,0,1,.72-2.227A45.39,45.39,0,0,1,65.492-3.18q1.285-2.183,3.058-4.643A9.4,9.4,0,0,1,69.8-9.341a1.146,1.146,0,0,1,.709-.31.4.4,0,0,1,.255.089.368.368,0,0,1,.155.3,1.361,1.361,0,0,1-.111.5,29.13,29.13,0,0,0-1.1,3.779,30.221,30.221,0,0,0-.9,6.616Q68.816,2.006,68.849,2.782Zm4.134-.488v.2a.725.725,0,0,0,.122.421,1.016,1.016,0,0,0,.909.41q1.385,0,3.2-2.128.321-.366.543-.366a.285.285,0,0,1,.222.122.283.283,0,0,1,.066.166q0,.432-1.064,1.463A8.008,8.008,0,0,1,75.21,3.9a3.713,3.713,0,0,1-1.751.51,1.605,1.605,0,0,1-1.308-.576,1.683,1.683,0,0,1-.321-1.086A5.273,5.273,0,0,1,73.592-.919a3.9,3.9,0,0,1,2.493-1.463.838.838,0,0,1,.521.177.746.746,0,0,1,.288.609,2.856,2.856,0,0,1-.543,1.441A5.777,5.777,0,0,1,72.983,2.294Zm.244-.864a4.454,4.454,0,0,0,1.219-.6A4.921,4.921,0,0,0,75.676-.52.925.925,0,0,0,75.842-1q0-.222-.211-.222a1.555,1.555,0,0,0-.82.432A5.672,5.672,0,0,0,73.227,1.43Zm5.053.864v.2a.725.725,0,0,0,.122.421,1.016,1.016,0,0,0,.909.41q1.385,0,3.2-2.128.321-.366.543-.366a.285.285,0,0,1,.222.122.283.283,0,0,1,.066.166q0,.432-1.064,1.463A8.007,8.007,0,0,1,80.507,3.9a3.713,3.713,0,0,1-1.751.51,1.605,1.605,0,0,1-1.308-.576,1.683,1.683,0,0,1-.321-1.086A5.273,5.273,0,0,1,78.89-.919a3.9,3.9,0,0,1,2.493-1.463A.838.838,0,0,1,81.9-2.2a.746.746,0,0,1,.288.609,2.856,2.856,0,0,1-.543,1.441A5.777,5.777,0,0,1,78.28,2.294Zm.244-.864a4.454,4.454,0,0,0,1.219-.6A4.922,4.922,0,0,0,80.973-.52.925.925,0,0,0,81.139-1q0-.222-.211-.222a1.555,1.555,0,0,0-.82.432A5.672,5.672,0,0,0,78.524,1.43Zm8.655-3.48q1.108-2.316,2.094-4.034a21.689,21.689,0,0,1,1.3-2.094,1,1,0,0,1,.709-.476.445.445,0,0,1,.321.144.451.451,0,0,1,.133.31,2.01,2.01,0,0,1-.377.853Q89.75-4.753,88.409-2.083a11.98,11.98,0,0,0-1.551,4.665,1.778,1.778,0,0,0,.244,1,2.215,2.215,0,0,0,.4.355.283.283,0,0,1,.066.222.578.578,0,0,1-.172.4.516.516,0,0,1-.382.183.859.859,0,0,1-.565-.31,1.805,1.805,0,0,1-.532-1.019q-.033-.244-.078-.909Q84.674,4.6,83.622,4.6a1.1,1.1,0,0,1-.975-.687A2.145,2.145,0,0,1,82.4,2.882,5.934,5.934,0,0,1,83.666-.6a3.441,3.441,0,0,1,2.693-1.729A1.493,1.493,0,0,1,87.179-2.05Zm-.377.909a.985.985,0,0,0-.521-.2A2.272,2.272,0,0,0,84.519-.2a4.868,4.868,0,0,0-1.1,2.87.731.731,0,0,0,.066.31.426.426,0,0,0,.4.277q.388,0,.942-.754A13.337,13.337,0,0,0,86.2.145q.222-.465.432-.931l.1-.211ZM93.5,3.613a.5.5,0,0,1,.41.222.582.582,0,0,1,.111.366,2.457,2.457,0,0,1-.288,1.1.9.9,0,0,1-.787.609q-.51,0-.51-.576a2.3,2.3,0,0,1,.355-1.175Q93.108,3.613,93.5,3.613Zm3.757,0a.5.5,0,0,1,.41.222.582.582,0,0,1,.111.366,2.457,2.457,0,0,1-.288,1.1.9.9,0,0,1-.787.609q-.51,0-.51-.576a2.3,2.3,0,0,1,.355-1.175Q96.865,3.613,97.253,3.613Zm3.757,0a.5.5,0,0,1,.41.222.582.582,0,0,1,.111.366,2.457,2.457,0,0,1-.288,1.1.9.9,0,0,1-.787.609q-.51,0-.51-.576a2.3,2.3,0,0,1,.355-1.175Q100.622,3.613,101.01,3.613Z" transform="translate(399.463 130.6)" fill="#395077" opacity="0.53"/>
  </g>
</svg>
