<svg id="Group_36570" data-name="Group 36570" xmlns="http://www.w3.org/2000/svg" width="13.845" height="13.844" viewBox="0 0 13.845 13.844">
  <path id="Path_1" data-name="Path 1" d="M620.266,358.269h0a.651.651,0,0,0,.921,0l3.993-3.993a.977.977,0,0,0,0-1.381l-3.993-3.993a.651.651,0,0,0-.921,0h0a.9.9,0,0,0-.266.639v1.774a.907.907,0,0,0,.894.9h.7a1.37,1.37,0,0,1,1.366,1.366h0a1.37,1.37,0,0,1-1.366,1.366h-.7a.907.907,0,0,0-.9.9v1.774a.9.9,0,0,0,.266.639" transform="translate(-620 -346.664)" fill="#171717" opacity="0.62"/>
  <path id="Path_2" data-name="Path 2" d="M668.019,472.809h0a.651.651,0,0,0,0-.921l-3.993-3.993a.977.977,0,0,0-1.381,0l-3.993,3.993a.651.651,0,0,0,0,.921h0a.9.9,0,0,0,.639.266h1.774a.907.907,0,0,0,.9-.894v-.7a1.37,1.37,0,0,1,1.366-1.366h0a1.37,1.37,0,0,1,1.366,1.366v.7a.907.907,0,0,0,.9.9h1.774a.9.9,0,0,0,.639-.266" transform="translate(-656.413 -459.23)" fill="#171717"/>
  <path id="Path_3" data-name="Path 3" d="M782.559,348.9h0a.651.651,0,0,0-.921,0l-3.993,3.993a.977.977,0,0,0,0,1.381l3.993,3.993a.651.651,0,0,0,.921,0h0a.9.9,0,0,0,.266-.639v-1.774a.907.907,0,0,0-.894-.9h-.7a1.37,1.37,0,0,1-1.366-1.366h0a1.37,1.37,0,0,1,1.366-1.366h.7a.907.907,0,0,0,.9-.9v-1.774a.9.9,0,0,0-.266-.639" transform="translate(-768.98 -346.664)" fill="#171717" opacity="0.62"/>
  <path id="Path_4" data-name="Path 4" d="M658.651,310.516h0a.651.651,0,0,0,0,.921l3.993,3.993a.976.976,0,0,0,1.381,0l3.993-3.993a.651.651,0,0,0,0-.921h0a.9.9,0,0,0-.639-.266h-1.774a.907.907,0,0,0-.9.894v.7a1.37,1.37,0,0,1-1.366,1.366h0a1.37,1.37,0,0,1-1.366-1.366v-.7a.907.907,0,0,0-.9-.9h-1.774a.9.9,0,0,0-.639.266" transform="translate(-656.413 -310.25)" fill="#171717"/>
</svg>
