<svg xmlns="http://www.w3.org/2000/svg" xmlns:xlink="http://www.w3.org/1999/xlink" width="129" height="129" viewBox="0 0 129 129">
  <defs>
    <clipPath id="clip-path">
      <rect id="Icon_-_Image_Background_Mask_" data-name="Icon - Image (Background/Mask)" width="129" height="129" transform="translate(-0.083)" fill="rgba(0,0,0,0)"/>
    </clipPath>
  </defs>
  <g id="Icon_-_Image" data-name="Icon - Image" transform="translate(0.083)" opacity="0.36">
    <rect id="Icon_-_Image_Background_Mask_2" data-name="Icon - Image (Background/Mask)" width="129" height="129" transform="translate(-0.083)" fill="rgba(0,0,0,0)"/>
    <g id="Icon_-_Image-2" data-name="Icon - Image" clip-path="url(#clip-path)">
      <path id="Vector_3" data-name="Vector 3" d="M103.217,25.759c0,1.234-.054,2.478-.162,3.712-1.508,16.975-13.3,28.068-30.314,28.068H26.222c-8.615,0-15.884-2.8-21.106-7.865A24.676,24.676,0,0,1,0,43.052c1.777-2.16,3.769-4.525,5.707-6.9,3.284-3.933,6.461-7.817,8.453-10.344,2.961-3.663,10.769-13.307,21.591-8.781a38.639,38.639,0,0,1,5.923,3.34c4.361,2.909,6.192,3.771,9.261,2.1,3.392-1.832,5.6-5.441,7.915-9.212,1.238-2,2.477-3.933,3.823-5.711,5.869-7.65,14.915-9.7,22.453-5.172A56.66,56.66,0,0,1,95.141,10.4c.646.646,1.292,1.244,1.885,1.837.808.808,3.5,3.5,6.192,6.088Z" transform="translate(15 60.679)" fill="#747474"/>
      <path id="Vector_2" data-name="Vector 2" d="M30.475,0C12.222,0,0,12.768,0,31.78V75.692A34.581,34.581,0,0,0,4.254,92.985c1.777-2.16,3.769-4.525,5.707-6.9,3.284-3.927,6.461-7.812,8.453-10.338,2.961-3.663,10.769-13.307,21.591-8.781a38.639,38.639,0,0,1,5.923,3.34c4.361,2.909,6.192,3.771,9.261,2.1,3.392-1.826,5.6-5.436,7.915-9.212,1.238-1.993,2.477-3.927,3.823-5.705,5.869-7.65,14.915-9.7,22.453-5.172a56.659,56.659,0,0,1,10.015,8.022c.646.646,1.292,1.244,1.885,1.837.808.8,3.5,3.5,6.192,6.088V31.78C107.471,12.768,95.248,0,77.049,0Z" transform="translate(10.747 10.747)" fill="#dcdaff"/>
      <path id="Vector_1" data-name="Vector 1" d="M13.865,27.745A13.992,13.992,0,0,1,0,13.872,14,14,0,0,1,13.865,0a14,14,0,0,1,13.87,13.872A13.993,13.993,0,0,1,13.865,27.745Z" transform="translate(33.816 33.397)" fill="#747474"/>
    </g>
  </g>
</svg>
