<svg xmlns="http://www.w3.org/2000/svg" width="162" height="100" viewBox="0 0 162 100">
  <g id="logo_3" data-name="logo 3" transform="translate(-383)">
    <path id="Clip" d="M0,0H162V100H0Z" transform="translate(383)" fill="none"/>
    <path id="Combined_Shape" data-name="Combined Shape" d="M449.226,80.225a3.913,3.913,0,0,1-1.476-1.53,5.059,5.059,0,0,1,0-4.523,3.931,3.931,0,0,1,1.476-1.53,4.652,4.652,0,0,1,4.4,0,3.869,3.869,0,0,1,1.476,1.53,5.106,5.106,0,0,1,0,4.523,3.858,3.858,0,0,1-1.476,1.53,4.652,4.652,0,0,1-4.4,0Zm.283-5.963a3.635,3.635,0,0,0,0,4.343,2.716,2.716,0,0,0,3.834,0,3.661,3.661,0,0,0,0-4.343,2.716,2.716,0,0,0-3.834,0Zm-11.52,5.97a3.63,3.63,0,0,1-1.4-1.523,5.46,5.46,0,0,1,0-4.532,3.673,3.673,0,0,1,1.4-1.535,4.136,4.136,0,0,1,2.183-.553,3.923,3.923,0,0,1,2.479.751,3.278,3.278,0,0,1,1.206,2.106h-1.692a1.807,1.807,0,0,0-.666-1.073,2.165,2.165,0,0,0-1.35-.392,2.25,2.25,0,0,0-1.824.792,3.9,3.9,0,0,0,0,4.338,2.577,2.577,0,0,0,3.174.421,1.693,1.693,0,0,0,.666-1.015h1.692a3.165,3.165,0,0,1-1.206,2.028,3.983,3.983,0,0,1-2.479.733A4.167,4.167,0,0,1,437.989,80.231Zm43.882.4h-1.607l3.071-8.4h1.729l3.071,8.4H486.5l-.672-1.945h-3.275l-.684,1.945h0Zm1.105-3.146h2.436L484.188,74Zm-61.368,3.146H420l3.073-8.4H424.8l3.071,8.4h-1.631l-.672-1.945h-3.276l-.684,1.945h0Zm1.1-3.145h2.436L423.924,74Zm50.962,3.144H472.14v-8.4h3.108a3.674,3.674,0,0,1,1.668.337,2.263,2.263,0,0,1,.985.924,2.812,2.812,0,0,1,.012,2.6,2.3,2.3,0,0,1-.972.935,3.59,3.59,0,0,1-1.692.355h-1.572v3.252h0Zm0-4.5h1.477a1.6,1.6,0,0,0,1.157-.355,1.316,1.316,0,0,0,.355-.967,1.334,1.334,0,0,0-.355-.977,1.6,1.6,0,0,0-1.157-.355h-1.477Zm30.925,4.5V77.646l-2.821-5.413h1.741l1.858,3.876,1.849-3.876h1.715l-2.808,5.413v2.988Zm-7.621,0-3.948-5.9v5.9H491.5v-8.4h1.535l3.948,5.917V72.233h1.535v8.4Zm-30.288,0v-5.8l-2.339,4.6h-1.211l-2.341-4.6v5.8h-1.535v-8.4h1.823l2.677,5.328,2.639-5.328h1.824v8.4Zm12.26-17.191H435.508V20l16.657,16.657V20l43.443,43.443Z" fill="#cdd4d9"/>
  </g>
</svg>
