<svg xmlns="http://www.w3.org/2000/svg" width="162" height="100" viewBox="0 0 162 100">
  <g id="logo_4" data-name="logo 4" transform="translate(-573)">
    <path id="Clip" d="M0,0H162V100H0Z" transform="translate(573)" fill="none"/>
    <path id="Combined_Shape" data-name="Combined Shape" d="M662.847,69.223H640.2L628.879,49.612,640.2,30h22.644l11.324,19.612L662.847,69.223h0ZM641.235,49.612l5.146,8.912h10.288l5.146-8.912L656.669,40.7H646.381Zm69.477,8.056a3.653,3.653,0,0,1-1.249-.757,3.464,3.464,0,0,1-.918-1.216,4.138,4.138,0,0,1-.346-1.768V45.3a4.175,4.175,0,0,1,.346-1.744,3.658,3.658,0,0,1,.918-1.263,3.911,3.911,0,0,1,1.249-.734,4.082,4.082,0,0,1,2.824,0,4.213,4.213,0,0,1,1.274.734,3.828,3.828,0,0,1,.894,1.263,4.175,4.175,0,0,1,.346,1.744v8.631a4.138,4.138,0,0,1-.346,1.768,3.62,3.62,0,0,1-.894,1.216,3.935,3.935,0,0,1-1.274.757,4.055,4.055,0,0,1-2.824,0Zm.3-13.622a1.563,1.563,0,0,0-.472,1.251v8.631a1.56,1.56,0,0,0,.472,1.251,1.743,1.743,0,0,0,2.226,0,1.56,1.56,0,0,0,.471-1.251V45.3a1.563,1.563,0,0,0-.471-1.251,1.743,1.743,0,0,0-2.226,0ZM700.7,57.668a3.691,3.691,0,0,1-1.25-.757,3.5,3.5,0,0,1-.918-1.218,4.132,4.132,0,0,1-.345-1.767V45.3a4.178,4.178,0,0,1,.345-1.744,3.7,3.7,0,0,1,.918-1.263,3.908,3.908,0,0,1,1.25-.734,4.167,4.167,0,0,1,4.1.734,3.843,3.843,0,0,1,.895,1.263,4.164,4.164,0,0,1,.345,1.744v.827H703.7V45.3a1.555,1.555,0,0,0-.47-1.251,1.743,1.743,0,0,0-2.228,0,1.559,1.559,0,0,0-.471,1.251v8.631A1.559,1.559,0,0,0,701,55.178a1.743,1.743,0,0,0,2.228,0,1.555,1.555,0,0,0,.47-1.251V50.852h-1.859V48.785h4.2v5.142a4.118,4.118,0,0,1-.345,1.767,3.631,3.631,0,0,1-.895,1.218,3.948,3.948,0,0,1-1.273.757,4.071,4.071,0,0,1-2.825,0Zm-10.007,0a3.677,3.677,0,0,1-1.25-.757,3.478,3.478,0,0,1-.918-1.216,4.127,4.127,0,0,1-.346-1.768V45.3a4.163,4.163,0,0,1,.346-1.744,3.68,3.68,0,0,1,.918-1.263,3.913,3.913,0,0,1,1.25-.734,4.167,4.167,0,0,1,4.1.734,3.85,3.85,0,0,1,.895,1.263,4.175,4.175,0,0,1,.346,1.744v8.631a4.139,4.139,0,0,1-.346,1.768,3.625,3.625,0,0,1-.895,1.216,3.922,3.922,0,0,1-1.273.757,4.055,4.055,0,0,1-2.824,0Zm.3-13.622a1.563,1.563,0,0,0-.471,1.251v8.631A1.56,1.56,0,0,0,691,55.178a1.745,1.745,0,0,0,2.227,0,1.56,1.56,0,0,0,.471-1.251V45.3a1.563,1.563,0,0,0-.471-1.251,1.745,1.745,0,0,0-2.227,0ZM679.6,57.784V41.441h2.342v14h4.637v2.341Zm-60.16,0V43.644H616.73v-2.2h7.76v2.2h-2.709v14.14Zm-5.3,0-2.043-5.509-2.019,5.509h-2.481l3.307-8.562-3.054-7.781h2.479l1.767,4.843,1.79-4.843h2.48l-3.123,7.781,3.375,8.562Zm-14.117,0V41.441H607v2.2h-4.637v4.8H606.4v2.2h-4.039v4.8H607v2.341Zm-6.313,0V43.644H591v-2.2h7.759v2.2H596.05V57.783Z" fill="#cdd4d9"/>
  </g>
</svg>
