<svg xmlns="http://www.w3.org/2000/svg" width="162" height="100" viewBox="0 0 162 100">
  <g id="logo_5" data-name="logo 5" transform="translate(-765)">
    <path id="Clip" d="M0,0H162V100H0Z" transform="translate(765)" fill="none"/>
    <path id="Combined_Shape" data-name="Combined Shape" d="M860.885,67.311a1.677,1.677,0,0,1-.636-.7,2.3,2.3,0,0,1-.228-1.049,2.257,2.257,0,0,1,.233-1.046,1.747,1.747,0,0,1,.661-.712,1.947,1.947,0,0,1,1.016-.256,1.839,1.839,0,0,1,1.107.319,1.472,1.472,0,0,1,.574.887h-.663a.853.853,0,0,0-.349-.487,1.148,1.148,0,0,0-.669-.178,1.213,1.213,0,0,0-.958.392,1.863,1.863,0,0,0-.005,2.164,1.156,1.156,0,0,0,.913.388,1.1,1.1,0,0,0,.867-.327,1.482,1.482,0,0,0,.34-.869h-1.052v-.453h1.644v2.1h-.537l-.049-.57a1.4,1.4,0,0,1-.488.47,1.535,1.535,0,0,1-.764.167A1.794,1.794,0,0,1,860.885,67.311Zm-40.13-.006a1.774,1.774,0,0,1-.676-.7,2.364,2.364,0,0,1,0-2.088,1.784,1.784,0,0,1,.676-.706,2.118,2.118,0,0,1,2.014,0,1.765,1.765,0,0,1,.673.706,2.372,2.372,0,0,1,0,2.088,1.755,1.755,0,0,1-.673.7,2.105,2.105,0,0,1-2.014,0Zm.31-3.048a1.2,1.2,0,0,0-.463.508,2.015,2.015,0,0,0,0,1.583,1.186,1.186,0,0,0,.463.51,1.361,1.361,0,0,0,.7.176,1.342,1.342,0,0,0,.695-.176,1.214,1.214,0,0,0,.463-.51,1.965,1.965,0,0,0,0-1.583,1.22,1.22,0,0,0-.463-.508,1.33,1.33,0,0,0-.695-.178A1.349,1.349,0,0,0,821.065,64.256ZM803.972,67.4a1.233,1.233,0,0,1-.531-.5,1.7,1.7,0,0,1-.2-.858V63.619h.587v2.425a1,1,0,0,0,.244.745,1.019,1.019,0,0,0,1.312,0,1,1,0,0,0,.243-.745V63.619h.587v2.419a1.642,1.642,0,0,1-.2.858,1.275,1.275,0,0,1-.544.5,1.8,1.8,0,0,1-1.5,0Zm-5.332-.093a1.784,1.784,0,0,1-.675-.7,2.364,2.364,0,0,1,0-2.088,1.793,1.793,0,0,1,.675-.706,2.12,2.12,0,0,1,2.015,0,1.756,1.756,0,0,1,.672.706,2.38,2.38,0,0,1,0,2.088,1.758,1.758,0,0,1-.672.7,2.107,2.107,0,0,1-2.015,0Zm.31-3.048a1.184,1.184,0,0,0-.462.508,2.014,2.014,0,0,0,0,1.583,1.184,1.184,0,0,0,.462.51,1.363,1.363,0,0,0,.7.176,1.342,1.342,0,0,0,.695-.176,1.206,1.206,0,0,0,.462-.51,1.726,1.726,0,0,0,.167-.792,1.746,1.746,0,0,0-.167-.791,1.207,1.207,0,0,0-.462-.508,1.33,1.33,0,0,0-.695-.178A1.35,1.35,0,0,0,798.949,64.256Zm16.672,3.051a1.685,1.685,0,0,1-.645-.7,2.534,2.534,0,0,1,0-2.092,1.7,1.7,0,0,1,.645-.707,1.872,1.872,0,0,1,.993-.254,1.771,1.771,0,0,1,1.113.331,1.469,1.469,0,0,1,.548.93h-.652a.918.918,0,0,0-.333-.535,1.066,1.066,0,0,0-.681-.2,1.143,1.143,0,0,0-.918.4,1.622,1.622,0,0,0-.337,1.087,1.6,1.6,0,0,0,.337,1.08,1.149,1.149,0,0,0,.918.393,1.114,1.114,0,0,0,.681-.188.871.871,0,0,0,.333-.515h.652a1.432,1.432,0,0,1-.548.9,1.791,1.791,0,0,1-1.113.327A1.889,1.889,0,0,1,815.621,67.307ZM893.2,67.5h-.586V63.619h1.335a1.634,1.634,0,0,1,.756.155,1.024,1.024,0,0,1,.439.418,1.192,1.192,0,0,1,.145.585,1.174,1.174,0,0,1-.191.653,1.061,1.061,0,0,1-.6.419l.825,1.643-.681,0-.752-1.562H893.2v1.562h0Zm0-2.006h.715a.785.785,0,0,0,.585-.193.706.706,0,0,0,.185-.5.683.683,0,0,0-.184-.5.809.809,0,0,0-.592-.186H893.2ZM855.918,67.5H855.3l1.427-3.875h.643l1.417,3.874h-.619l-.333-.946h-1.583l-.332.946h0Zm.5-1.414h1.252l-.626-1.765ZM835.486,67.5h-.619l1.427-3.875h.643l1.417,3.874h-.619l-.333-.946h-1.584l-.331.946h0Zm.5-1.414h1.251l-.626-1.765ZM808.608,67.5h-.586V63.619h1.335a1.634,1.634,0,0,1,.756.155,1.021,1.021,0,0,1,.44.418,1.186,1.186,0,0,1,.144.585,1.174,1.174,0,0,1-.191.653,1.063,1.063,0,0,1-.6.419l.824,1.643-.68,0-.753-1.562h-.693v1.562h0Zm0-2.006h.715a.773.773,0,0,0,.584-.193.7.7,0,0,0,.186-.5.681.681,0,0,0-.183-.5.811.811,0,0,0-.593-.186h-.709Zm88.426,2.005V63.619H899.5V64.1h-1.877V65.3h1.711v.464h-1.711v1.251H899.5v.477Zm-8.631,0V63.619h2.464V64.1H888.99V65.3H890.7v.464H888.99v1.251h1.877v.477Zm-2.423,0V65.76H884.1v1.734h-.587V63.619h.587v1.66h1.877v-1.66h.587v3.875Zm-9.125,0V63.619h2.464V64.1h-1.877V65.3h1.711v.464h-1.711v1.251h1.877v.477Zm-2.424,0-1.943-2.918v2.918H871.9V63.619h.587l1.943,2.917V63.619h.587v3.875Zm-4.955,0V63.62h.588v3.874Zm-4.03,0V63.619h.587v3.41h1.761v.465Zm-19.556,0v-1.43l-1.285-2.445h.664l.913,1.87.909-1.87h.657l-1.272,2.445v1.43Zm-3.413,0-1.944-2.918v2.918h-.586V63.619h.586l1.944,2.917V63.619h.588v3.875Zm-10.661,0h-.587V63.62h1.357a1.648,1.648,0,0,1,.753.15,1.031,1.031,0,0,1,.445.417,1.264,1.264,0,0,1,.006,1.174,1.019,1.019,0,0,1-.44.417,1.671,1.671,0,0,1-.764.156h-.77v1.561h0Zm0-2.043h.742a.822.822,0,0,0,.595-.18.67.67,0,0,0,.18-.49.683.683,0,0,0-.18-.5.819.819,0,0,0-.595-.18h-.742ZM828.8,67.495V64.633l-1.185,2.308h-.454l-1.191-2.3v2.857h-.587V63.619h.693l1.312,2.579,1.307-2.579h.691v3.875Zm-34.084,0v-1.43l-1.284-2.445h.663l.914,1.87.909-1.87h.657l-1.273,2.445v1.43Zm57.921,0V64.1H851.5v-.476h2.874V64.1h-1.14v3.4Zm-41.607-8.715a5.775,5.775,0,0,1-1.97-1.194,5.5,5.5,0,0,1-1.446-1.916,6.508,6.508,0,0,1-.543-2.784V39.291a6.583,6.583,0,0,1,.543-2.749,5.8,5.8,0,0,1,1.446-1.988,6.1,6.1,0,0,1,1.97-1.156,6.566,6.566,0,0,1,6.454,1.156,6.07,6.07,0,0,1,1.409,1.988,6.6,6.6,0,0,1,.543,2.749V52.885a6.521,6.521,0,0,1-.543,2.784,5.741,5.741,0,0,1-1.409,1.916,6.2,6.2,0,0,1-2.007,1.194,6.426,6.426,0,0,1-4.447,0Zm-15.094.108a5.059,5.059,0,0,1-1.953-1.013,5.6,5.6,0,0,1-1.428-1.861A6.6,6.6,0,0,1,792,53.1V38.93a6.28,6.28,0,0,1,.433-2.351,5.547,5.547,0,0,1,1.23-1.88,5.731,5.731,0,0,1,1.9-1.247A6.367,6.367,0,0,1,798,33a5.593,5.593,0,0,1,4.231,1.7,6.032,6.032,0,0,1,1.247,1.971,6.65,6.65,0,0,1,.453,2.477v1.446h-3.688v-1.23a2.989,2.989,0,0,0-.615-1.88,1.993,1.993,0,0,0-1.663-.795,1.875,1.875,0,0,0-1.826.849,4.556,4.556,0,0,0-.452,2.152v13.16a3.4,3.4,0,0,0,.489,1.88,1.92,1.92,0,0,0,1.753.76,2.667,2.667,0,0,0,.777-.127,2.319,2.319,0,0,0,.779-.416,2.19,2.19,0,0,0,.542-.8,3.207,3.207,0,0,0,.217-1.265V51.62h3.688v1.591a5.727,5.727,0,0,1-.453,2.26,6.246,6.246,0,0,1-1.247,1.9,6.033,6.033,0,0,1-1.863,1.319,5.44,5.44,0,0,1-2.3.488A8.255,8.255,0,0,1,795.941,58.887Zm96.242.072V48.076l-5.06-14.859h3.9l2.965,10.231h.072l2.966-10.231h3.9l-5.062,14.859V58.959Zm-10.592,0-5.639-15.474h-.073V58.959h-3.687V33.217h3.543L881.3,48.728h.072V33.217h3.688V58.959Zm-15.113,0-1.084-5.53h-5.026l-1.086,5.53H855.6l5.75-25.742h3.072l5.748,25.742Zm-22.958,0V33.217h5.531a8.22,8.22,0,0,1,2.677.4,5.146,5.146,0,0,1,2.1,1.41,5.5,5.5,0,0,1,1.3,2.368,14.762,14.762,0,0,1,.361,3.669,18.38,18.38,0,0,1-.2,2.93,6.118,6.118,0,0,1-.85,2.241,5.366,5.366,0,0,1-2.025,1.971,6.83,6.83,0,0,1-3.326.7h-1.879v10.05Zm-7.521,0V43.3h-.072l-3.65,11.064h-1.844L826.816,43.3h-.072V58.959h-3.688V33.217H826.6l4.737,13.631h.072l4.7-13.631h3.578V58.959Z" fill="#cdd4d9"/>
  </g>
</svg>
