<svg id="Group_19" data-name="Group 19" xmlns="http://www.w3.org/2000/svg" width="38.304" height="25.142" viewBox="0 0 38.304 25.142">
  <path id="Shape_327" data-name="Shape 327" d="M1418.159,4889.874h34.973a1.7,1.7,0,0,1,1.665,1.734v21.674a1.7,1.7,0,0,1-1.665,1.734h-34.973a1.7,1.7,0,0,1-1.665-1.734v-21.674A1.7,1.7,0,0,1,1418.159,4889.874Z" transform="translate(-1416.494 -4889.874)" fill="#5870be"/>
  <path id="Shape_329" data-name="Shape 329" d="M1433.249,4902.441a8.979,8.979,0,1,1,8.98,8.981,8.98,8.98,0,0,1-8.98-8.981Z" transform="translate(-1416.494 -4889.874)" fill="#ffaf38"/>
  <path id="Shape_329-2" data-name="Shape 329" d="M8.979,17.96A8.98,8.98,0,1,1,16.17,3.6h-1.2v.6h1.613c.121.191.235.389.341.589H14.37v.6h2.843c.088.2.167.4.237.6h-3.68v.6h3.868a9.033,9.033,0,0,1-.192,5.389H13.769v.6h3.439c-.09.207-.187.4-.285.591H14.37v.6h2.206c-.133.21-.272.411-.413.6H14.97v.6h.7A8.993,8.993,0,0,1,8.979,17.96Z" transform="translate(2.997 3.586)" fill="#e63737"/>
  <text id="MasterCard" transform="translate(1.863 14.347)" fill="#fff" font-size="6" font-family="Arial" font-weight="800" letter-spacing="-0.075em"><tspan x="0" y="0">MasterCard</tspan></text>
</svg>
