<svg xmlns="http://www.w3.org/2000/svg" width="29.173" height="51.049" viewBox="0 0 29.173 51.049">
  <g id="Group_43" data-name="Group 43" transform="translate(0 -0.001)">
    <g id="Group" transform="translate(0 0)">
      <g id="Group-2" data-name="Group" transform="translate(0 0)">
        <path id="Vector" d="M23.619,51.049H5.65a5.79,5.79,0,0,1-3.97-1.562A5.124,5.124,0,0,1,0,45.727V5.315A5.143,5.143,0,0,1,1.653,1.558,5.71,5.71,0,0,1,5.6,0l18,.019a5.445,5.445,0,0,1,5.553,5.316l.027,40.4A5.447,5.447,0,0,1,23.619,51.049ZM11.6,46.256a.391.391,0,0,0-.391.391v.824a.391.391,0,0,0,.391.39h6.1a.39.39,0,0,0,.39-.39v-.824a.391.391,0,0,0-.39-.391ZM9.5,46.241a.876.876,0,0,0-.59.235.784.784,0,0,0,0,1.129.853.853,0,0,0,.59.223.844.844,0,0,0,.587-.223.772.772,0,0,0,0-1.129A.862.862,0,0,0,9.5,46.241ZM2.919,7.98V43.465H26.61V7.98ZM14.483,1.562A2.441,2.441,0,0,0,12,3.958a2.481,2.481,0,0,0,4.959,0A2.441,2.441,0,0,0,14.483,1.562Z" transform="translate(29.173 51.05) rotate(180)" fill="#456ed6"/>
      </g>
    </g>
    <rect id="Rectangle_31" data-name="Rectangle 31" width="27.129" height="37.506" transform="translate(0.958 6.251)" fill="#456ed6" opacity="0.2"/>
  </g>
</svg>
