<svg id="Paypal" xmlns="http://www.w3.org/2000/svg" width="38.043" height="25.142" viewBox="0 0 38.043 25.142">
  <path id="Shape_327" data-name="Shape 327" d="M1463.342,4890.035h34.735a1.7,1.7,0,0,1,1.654,1.734v21.673a1.7,1.7,0,0,1-1.654,1.734h-34.735a1.7,1.7,0,0,1-1.654-1.734V4891.77A1.7,1.7,0,0,1,1463.342,4890.035Z" transform="translate(-1461.687 -4890.035)" fill="#f1f1f1"/>
  <path id="Shape_327_copy" data-name="Shape 327 copy" d="M.409,24.551h0A1.78,1.78,0,0,1,0,23.409V1.735A1.7,1.7,0,0,1,1.654,0H36.389a1.607,1.607,0,0,1,1.126.464L.41,24.55Z" fill="rgba(255,255,255,0.73)"/>
  <path id="Shape_335" data-name="Shape 335" d="M11.653,9.557l1.3-2.35-.724-5.644H14l.286,3.34,1.733-3.34h1.828L13.634,9.557ZM6.1,5.341c.273-1.374,1.6-1.81,3.562-1.81.117-.611-.272-.764-.934-.741a4.868,4.868,0,0,0-1.694.393L7.191,1.81a7.943,7.943,0,0,1,1.985-.349c1.226-.022,2.589.369,2.278,1.962L10.7,7.172H8.924L9.04,6.6a2.223,2.223,0,0,1-1.582.676C6.616,7.281,5.87,6.735,6.1,5.341Zm1.811-.087a.5.5,0,0,0,.467.785A.91.91,0,0,0,9.313,5.3a4.2,4.2,0,0,1,.1-.5H8.962A1.2,1.2,0,0,0,7.911,5.253ZM0,7.172,1.464,0H4.772A1.844,1.844,0,0,1,6.533,2.441,2.75,2.75,0,0,1,3.8,4.8H2.415L1.94,7.172Zm2.693-3.75H3.6a1.232,1.232,0,0,0,1.109-.981.719.719,0,0,0-.653-.98h-.95Z" transform="translate(2.996 8.405)" fill="#3284ae"/>
  <path id="Shape_335-2" data-name="Shape 335" d="M6.1,5.363c.276-1.374,1.617-1.809,3.606-1.809.138-.612-.256-.763-.926-.741a5.225,5.225,0,0,0-1.734.392L7.2,1.832a8.513,8.513,0,0,1,2.029-.348c1.241-.022,2.6.369,2.285,1.961L10.75,7.194H8.977L9.1,6.628A2.311,2.311,0,0,1,7.478,7.3C6.622,7.3,5.866,6.758,6.1,5.363Zm1.833-.087a.509.509,0,0,0,.493.785.9.9,0,0,0,.926-.74c.039-.175.059-.328.1-.5H9.017A1.24,1.24,0,0,0,7.933,5.276Zm3.636,1.918L13.036,0h1.82L13.37,7.194ZM0,7.194,1.462.023h3.3a1.849,1.849,0,0,1,1.757,2.44A2.749,2.749,0,0,1,3.773,4.819H2.41L1.916,7.194ZM2.687,3.445h.888A1.252,1.252,0,0,0,4.7,2.464a.73.73,0,0,0-.671-.98H3.082Z" transform="translate(20.21 8.382)" fill="#3ca9c7"/>
</svg>
