<svg xmlns="http://www.w3.org/2000/svg" width="52.585" height="52.602" viewBox="0 0 52.585 52.602">
  <path id="Path_23741" data-name="Path 23741" d="M25.957.265a7.069,7.069,0,0,0-4.885,2.062L18.441,4.958H11.979A7.1,7.1,0,0,0,4.926,12.01v6.457L2.314,21.1a7.079,7.079,0,0,0,0,9.958l2.612,2.631v6.462a7.1,7.1,0,0,0,7.053,7.053h6.462l2.631,2.612a7.08,7.08,0,0,0,9.958,0l2.635-2.612h6.457a7.1,7.1,0,0,0,7.053-7.053V33.692l2.63-2.631a7.079,7.079,0,0,0,0-9.958l-2.63-2.635V12.01a7.1,7.1,0,0,0-7.053-7.053H33.665L31.03,2.327A7.027,7.027,0,0,0,25.957.265Zm.069,4.693a2.325,2.325,0,0,1,1.682.692L31.03,8.958a2.347,2.347,0,0,0,1.664.692h7.429a2.327,2.327,0,0,1,2.356,2.356v7.433a2.347,2.347,0,0,0,.7,1.664l3.309,3.322a2.3,2.3,0,0,1,0,3.309l-3.309,3.327a2.347,2.347,0,0,0-.7,1.664v7.429a2.327,2.327,0,0,1-2.356,2.356H32.694a2.347,2.347,0,0,0-1.664.678L27.708,46.51a2.3,2.3,0,0,1-3.309,0l-3.327-3.322a2.347,2.347,0,0,0-1.664-.678H11.979a2.327,2.327,0,0,1-2.356-2.356V32.725a2.347,2.347,0,0,0-.678-1.664L5.623,27.734a2.3,2.3,0,0,1,0-3.309L8.946,21.1a2.347,2.347,0,0,0,.678-1.664V12.006A2.327,2.327,0,0,1,11.979,9.65h7.429a2.346,2.346,0,0,0,1.663-.692L24.4,5.65A2.355,2.355,0,0,1,26.026,4.958Zm7.016,11.709a2.347,2.347,0,0,0-1.613.71L17.346,31.46a2.353,2.353,0,0,0,3.327,3.327L34.756,20.7a2.347,2.347,0,0,0-1.714-4.037Zm-14.028.028A2.346,2.346,0,1,0,21.36,19.04,2.346,2.346,0,0,0,19.014,16.694ZM33.092,30.772a2.346,2.346,0,1,0,2.346,2.346A2.346,2.346,0,0,0,33.092,30.772Z" transform="translate(0.233 0.236)" fill="#ff6875" stroke="rgba(0,0,0,0)" stroke-width="1"/>
</svg>
