<svg xmlns="http://www.w3.org/2000/svg" width="19.746" height="19.803" viewBox="0 0 19.746 19.803">
  <path id="Subtraction_1" data-name="Subtraction 1" d="M16358.477,9182.8a2.475,2.475,0,0,1,0-4.95h.01v-12.375h-1.237a1.239,1.239,0,0,1,0-2.478h2.466a1.238,1.238,0,0,1,1.237,1.237v1.24h12.321a2.48,2.48,0,0,1,2.425,2.96l-1.241,6.188a2.463,2.463,0,0,1-2.412,1.989h-11.093v1.237h11.093a2.466,2.466,0,0,1,0,4.932h-.007a2.466,2.466,0,0,1-2.463-2.453h-8.627a2.476,2.476,0,0,1-2.476,2.472Zm13.522-3.5a1,1,0,1,0,1,1A1,1,0,0,0,16372,9179.3Zm-13.5,0a1,1,0,1,0,1,1A1,1,0,0,0,16358.5,9179.3Zm2.453-11.352v6.189h11.093l1.236-6.189h-12.329Z" transform="translate(-16356 -9162.999)"/>
</svg>
