<svg id="temp_avatar-190111CLcl111_temp" xmlns="http://www.w3.org/2000/svg" width="42" height="42" viewBox="0 0 42 42">
  <path id="Path_23722" data-name="Path 23722" d="M42,21A21,21,0,0,1,21.024,42h-.067A21,21,0,1,1,42,21Z" fill="#7dd1f2"/>
  <path id="Path_23723" data-name="Path 23723" d="M34.867,30.157c.008,2.081-6.905,4.368-13.584,4.541-7.189.183-14.17-2.091-14.161-3.966.008-1.413,3.973-1.573,4.616-4.15.5-2.006-1.669-2.871-1.8-5.8a7.795,7.795,0,0,1,2.949-6.153c2.428-1.936,5.366-1.7,8.465-1.444,2.743.222,9.409.766,10.738,4.228,1.17,3.05-2.863,5.609-1.454,8.858C31.74,28.808,34.861,28.76,34.867,30.157Z" fill="#142161"/>
  <path id="Path_23724" data-name="Path 23724" d="M36.708,34.887A20.956,20.956,0,0,1,21.017,41.96h-.068a20.963,20.963,0,0,1-16.4-7.933,18.24,18.24,0,0,1,4.7-3.995,20.741,20.741,0,0,1,8.463-2.743h0a24.893,24.893,0,0,1,2.932-.129,26.7,26.7,0,0,1,4.083.306h0a18.115,18.115,0,0,1,8.827,3.814,15.18,15.18,0,0,1,3.157,3.607Z" fill="#0088c8"/>
  <path id="Path_23725" data-name="Path 23725" d="M24.893,27.541a3.888,3.888,0,0,1-7.711-.031,2.265,2.265,0,0,0,1.374-1,8.292,8.292,0,0,0,.189-2.927l-.006-.751h4.715c-.031.216-.072.531-.095.912a4.565,4.565,0,0,0,.311,2.824,2.527,2.527,0,0,0,1.223.97Z" fill="#ecf5eb"/>
  <path id="Path_23726" data-name="Path 23726" d="M26.949,15.8A10.1,10.1,0,0,1,25.567,21a8.255,8.255,0,0,1-1.446,1.818,6.628,6.628,0,0,1-.81.649,4.162,4.162,0,0,1-2.284.794h-.069a3.709,3.709,0,0,1-2.211-.79h0c-.077-.052-.153-.106-.229-.163a7.824,7.824,0,0,1-1.952-2.18,9.5,9.5,0,0,1-.833-1.729,10.648,10.648,0,0,1-.573-4.664v-.008a5.847,5.847,0,0,1,.219-1.584v-.01A5.875,5.875,0,0,1,26.5,12.6a5.81,5.81,0,0,1,.4,2.124v.008Q26.95,15.285,26.949,15.8Z" fill="#ecf5eb"/>
  <path id="Path_23727" data-name="Path 23727" d="M14.16,12.456a12.405,12.405,0,0,0,.136,6.255,26.617,26.617,0,0,0,1.135-4.295c.112-.639.195-1.254.256-1.843l.871,1.324a6.829,6.829,0,0,1,6.967-3.415,5.622,5.622,0,0,1,2.67,2.176,6.432,6.432,0,0,1,.568,1.256,8.9,8.9,0,0,1,.491,2.649,6.281,6.281,0,0,0,.51-4.913C26.6,8.468,22.651,7.678,22.244,7.607c-.1-.018-.18-.03-.234-.039-.317-.05-4.479-.637-6.692,2.15a6.423,6.423,0,0,0-1.159,2.738Z" fill="#142161"/>
  <path id="Path_23728" data-name="Path 23728" d="M13.862,16.632c.6.473,1.671.922,2.216.533,1.013-.726.373-4.583,1.019-5.567a3.465,3.465,0,0,1,.269-.35,4.541,4.541,0,0,1,.938-.724,5.132,5.132,0,0,1,4.824-.336,3.323,3.323,0,0,1,1.206.806c1.666,1.833.126,4.967,1.617,5.9a1.667,1.667,0,0,0,.577.209A3.229,3.229,0,0,0,29.379,16.1c1.505-1.724-.46-5.447-.961-6.4-.8-1.514-1.847-3.5-4.126-4.2a6.047,6.047,0,0,0-3.595.077,5.589,5.589,0,0,0-3.385-.217A6.4,6.4,0,0,0,13.4,9.163C12.327,11.494,11.985,15.145,13.862,16.632Z" fill="#142161"/>
  <path id="Path_23729" data-name="Path 23729" d="M17.9,15a.059.059,0,0,1-.056-.1,2.218,2.218,0,0,1,.613-.378,2.4,2.4,0,0,1,1.677-.021.059.059,0,0,1-.014.114c-.324.022-.676.061-1.053.124A10.479,10.479,0,0,0,17.9,15Z" fill="#142161"/>
  <path id="Path_23730" data-name="Path 23730" d="M19.221,15.733a.288.288,0,1,0-.288-.288A.288.288,0,0,0,19.221,15.733Z" fill="#142161"/>
  <path id="Path_23731" data-name="Path 23731" d="M24.087,14.956a.059.059,0,0,0,.055-.1,2.193,2.193,0,0,0-.613-.378,2.4,2.4,0,0,0-1.677-.022.059.059,0,0,0,.014.114c.324.022.676.061,1.053.124A10.574,10.574,0,0,1,24.087,14.956Z" fill="#142161"/>
  <path id="Path_23732" data-name="Path 23732" d="M22.769,15.691a.288.288,0,1,0-.288-.288A.288.288,0,0,0,22.769,15.691Z" fill="#142161"/>
  <path id="Path_23733" data-name="Path 23733" d="M22.958,19.573a2.022,2.022,0,0,1-.714,1.032,1.881,1.881,0,0,1-1.761.284,2.024,2.024,0,0,1-1.26-1.291h.369l2.981-.024Z" fill="#142161"/>
  <path id="Path_23734" data-name="Path 23734" d="M21.6,16.294c.083,0,.546,1.527-.081,1.939-.31.2-.827.095-.841,0-.01-.067.232-.095.444-.257C21.767,17.5,21.531,16.3,21.6,16.294Z" fill="#142161"/>
  <path id="Path_23735" data-name="Path 23735" d="M22.586,19.681a.4.4,0,0,1-.12.284.407.407,0,0,1-.289.12H19.993a.408.408,0,0,1-.409-.409.378.378,0,0,1,.008-.08l2.981-.024a.35.35,0,0,1,.014.109Z" fill="#fff"/>
  <path id="Path_23736" data-name="Path 23736" d="M22.244,20.6a1.881,1.881,0,0,1-1.761.284,1.035,1.035,0,0,1,1.761-.284Z" fill="#eb4d5a"/>
</svg>
