<svg id="Western-union" xmlns="http://www.w3.org/2000/svg" width="38.313" height="25.143" viewBox="0 0 38.313 25.143">
  <path id="Shape_327" data-name="Shape 327" d="M1372.292,4890.072h34.982a1.7,1.7,0,0,1,1.666,1.734v21.676a1.7,1.7,0,0,1-1.666,1.733h-34.982a1.7,1.7,0,0,1-1.666-1.733v-21.676A1.7,1.7,0,0,1,1372.292,4890.072Z" transform="translate(-1370.627 -4890.072)" fill="#353a40"/>
  <path id="WESTERN_UNION" data-name="WESTERN UNION" d="M19.7,8.185a1.47,1.47,0,0,1-.624-.606,2.042,2.042,0,0,1-.24-1.038,1.863,1.863,0,0,1,.474-1.356A1.765,1.765,0,0,1,20.629,4.7a1.791,1.791,0,0,1,1.336.477,1.821,1.821,0,0,1,.469,1.335,2.232,2.232,0,0,1-.2,1.022,1.49,1.49,0,0,1-.592.621,1.924,1.924,0,0,1-.967.222A2.175,2.175,0,0,1,19.7,8.185ZM20.1,5.767a1.221,1.221,0,0,0-.2.778,1.212,1.212,0,0,0,.2.773.726.726,0,0,0,1.068,0,1.332,1.332,0,0,0,.19-.826,1.114,1.114,0,0,0-.2-.734.669.669,0,0,0-.536-.231A.65.65,0,0,0,20.1,5.767ZM10.193,8.341a1.409,1.409,0,0,1-.5-.146,1.232,1.232,0,0,1-.368-.307,1.141,1.141,0,0,1-.229-.409,2.169,2.169,0,0,1-.1-.6V4.761h1.071V6.93a.625.625,0,0,0,.159.454.669.669,0,0,0,.872,0,.63.63,0,0,0,.158-.457V4.761h1.071V6.879a1.821,1.821,0,0,1-.1.6,1.278,1.278,0,0,1-.3.489,1.2,1.2,0,0,1-.431.3,2.133,2.133,0,0,1-.751.118A4.773,4.773,0,0,1,10.193,8.341Zm15.139-.024-1.3-1.952V8.316h-1.01V4.761h1l1.309,1.966V4.761h1.012V8.316Zm-9.978,0-1.3-1.952V8.316h-1.01V4.761h1l1.308,1.966V4.761h1.012V8.316Zm1.77-.009V4.759H18.2V8.308ZM8.918,3.326a1.387,1.387,0,0,1-.387-.888l1.022-.065a.812.812,0,0,0,.134.388.564.564,0,0,0,.474.217.515.515,0,0,0,.355-.111.322.322,0,0,0,.006-.5,1.366,1.366,0,0,0-.55-.206,2.311,2.311,0,0,1-1.007-.432.875.875,0,0,1-.3-.686A.948.948,0,0,1,8.817.522,1.031,1.031,0,0,1,9.284.139,2.132,2.132,0,0,1,10.139,0a1.708,1.708,0,0,1,1.016.254,1.1,1.1,0,0,1,.416.805l-1.012.061a.56.56,0,0,0-.17-.349.536.536,0,0,0-.357-.109.425.425,0,0,0-.282.081.253.253,0,0,0-.095.2.2.2,0,0,0,.079.154.874.874,0,0,0,.361.13,4.465,4.465,0,0,1,1.009.314,1.069,1.069,0,0,1,.443.395,1.014,1.014,0,0,1,.138.525,1.147,1.147,0,0,1-.185.631,1.171,1.171,0,0,1-.517.438,2.064,2.064,0,0,1-.836.149A1.7,1.7,0,0,1,8.918,3.326Zm16.414.29-1.3-1.953V3.616h-1.01V.061h1l1.309,1.967V.061h1.012V3.616Zm-3.875,0-.574-1.087a.849.849,0,0,0-.195-.273.445.445,0,0,0-.264-.083H20.33V3.616H19.251V.061h1.789A2.512,2.512,0,0,1,21.8.148a.814.814,0,0,1,.425.323,1,1,0,0,1,.161.576,1.017,1.017,0,0,1-.123.511.98.98,0,0,1-.34.347,1.292,1.292,0,0,1-.377.142,1.051,1.051,0,0,1,.28.13A1.069,1.069,0,0,1,22,2.365a1.429,1.429,0,0,1,.151.22l.52,1.031ZM20.33,1.5h.453a1.511,1.511,0,0,0,.284-.048.289.289,0,0,0,.174-.111.335.335,0,0,0,.068-.207A.331.331,0,0,0,21.2.87a.638.638,0,0,0-.4-.091H20.33Zm-4.6,2.116V.061h2.878V.819H16.8v.565h1.672V2.11H16.8v.7h1.855v.805Zm-2.652,0V.938H11.981V.061h3.265V.938h-1.1V3.616Zm-7.865,0V.061H8.088V.819h-1.8v.565H7.958V2.11H6.286v.7H8.14v.805Zm-2.167,0L2.433,1.377,1.826,3.616H.773L0,.061H1.02l.367,1.99L1.925.061H2.941L3.48,2.048,3.847.061H4.862L4.1,3.616Z" transform="translate(2.99 8.379)" fill="#ecd345"/>
  <path id="Shape_338" data-name="Shape 338" d="M2.99,8.38V0h1.2V8.38ZM0,8.38V0H1.2V8.38Z" transform="translate(31.133 8.378)" fill="#ecd345"/>
</svg>
